SplineFontDB: 3.0
FontName: Untitled1
FullName: Untitled1
FamilyName: Untitled1
Weight: Regular
Copyright: Copyright (c) 2019, Jack
UComments: "2019-8-23: Created with FontForge (http://fontforge.org)"
Version: 001.000
ItalicAngle: 0
UnderlinePosition: -200
UnderlineWidth: 25
Ascent: 850
Descent: 150
InvalidEm: 0
LayerCount: 2
Layer: 0 0 "Back" 1
Layer: 1 0 "Fore" 0
XUID: [1021 647 -312734098 29385]
StyleMap: 0x0000
FSType: 0
OS2Version: 0
OS2_WeightWidthSlopeOnly: 0
OS2_UseTypoMetrics: 1
CreationTime: 1566577596
ModificationTime: 1567434308
PfmFamily: 17
TTFWeight: 400
TTFWidth: 5
LineGap: 90
VLineGap: 90
OS2TypoAscent: 0
OS2TypoAOffset: 1
OS2TypoDescent: 0
OS2TypoDOffset: 1
OS2TypoLinegap: 90
OS2WinAscent: 0
OS2WinAOffset: 1
OS2WinDescent: 0
OS2WinDOffset: 1
HheadAscent: 0
HheadAOffset: 1
HheadDescent: 0
HheadDOffset: 1
OS2Vendor: 'PfEd'
Lookup: 6 0 0 "semivowels" { "semivowels contextual 0"  "semivowels contextual 1"  } ['liga' ('latn' <'dflt' > 'DFLT' <'dflt' > ) ]
Lookup: 1 0 0 "Single Substitution lookup 1" { "Single Substitution lookup 1 subtable"  } []
Lookup: 1 0 0 "Single Substitution lookup 2" { "Single Substitution lookup 2 subtable"  } []
Lookup: 4 0 1 "diphthongs" { "diphthongs subtable"  } ['liga' ('latn' <'dflt' > 'DFLT' <'dflt' > ) ]

StartChar: ny
Encoding: 0 60256 0
Width: 750
VWidth: 2427
Flags: W
HStem: 255 60<132 619> 529 60<132 619> 802 60<132 619>
VStem: 72 60<315 529 589 802> 619 60<315 529 589 802>
CounterMasks: 1 e0
AnchorPoint: "Above" 375 230 basechar 0
LayerCount: 2
Back
SplineSet
101.868164062 832.198242188 m 1
 649.12109375 832.198242188 l 1
 649.12109375 284.9453125 l 1
 101.868164062 284.9453125 l 1
 101.868164062 832.198242188 l 1
101.868164062 558.571289062 m 1
 649.12109375 558.571289062 l 1025
EndSplineSet
Fore
SplineSet
619 529 m 1
 132 529 l 1
 132 315 l 1
 619 315 l 1
 619 529 l 1
619 589 m 1
 619 802 l 1
 132 802 l 1
 132 589 l 1
 619 589 l 1
102 862 m 2
 649 862 l 2
 657.666666667 862 664.833333333 858.833333333 670.5 852.5 c 0
 676.166666667 846.166666667 679 839.333333333 679 832 c 2
 679 285 l 2
 679 276.333333333 675.833333333 269.166666667 669.5 263.5 c 0
 663.166666667 257.833333333 656.333333333 255 649 255 c 2
 102 255 l 2
 93.3333333333 255 86.1666666667 258.166666667 80.5 264.5 c 0
 74.8333333333 270.833333333 72 277.666666667 72 285 c 2
 72 832 l 2
 72 840.666666667 75.1666666667 847.833333333 81.5 853.5 c 0
 87.8333333333 859.166666667 94.6666666667 862 102 862 c 2
EndSplineSet
Substitution2: "Single Substitution lookup 18 subtable" ny.ccv.2
Substitution2: "Single Substitution lookup 31 subtable" ny.ccv.2
Substitution2: "Single Substitution lookup 54 subtable" ny.ccv.1
Substitution2: "Single Substitution lookup 56 subtable" ny.cvc.1
Substitution2: "Single Substitution lookup 60 subtable" ny.cvc.3
Substitution2: "Single Substitution lookup 64 subtable" ny.ccv.2
Substitution2: "Single Substitution lookup 71 subtable" ny.cvc.1
Substitution2: "Single Substitution lookup 82 subtable" ny.cvc.3
EndChar

StartChar: dy
Encoding: 1 60257 1
Width: 750
VWidth: 2427
Flags: W
HStem: 255 60<132 679> 529 60<132 679> 802 60<132 679>
VStem: 72 60<315 529 589 802>
CounterMasks: 1 e0
AnchorPoint: "Above" 375 230 basechar 0
LayerCount: 2
Back
SplineSet
649.12109375 284.9453125 m 5
 101.868164062 284.9453125 l 5
 101.868164062 832.198242188 l 5
 649.12109375 832.198242188 l 1029
101.868164062 558.571289062 m 5
 649.12109375 558.571289062 l 1029
EndSplineSet
Fore
SplineSet
679 315 m 1
 679 255 l 1
 102 255 l 2
 93.3333333333 255 86.1666666667 258.166666667 80.5 264.5 c 0
 74.8333333333 270.833333333 72 277.666666667 72 285 c 2
 72 832 l 2
 72 840.666666667 75.1666666667 847.833333333 81.5 853.5 c 0
 87.8333333333 859.166666667 94.6666666667 862 102 862 c 2
 679 862 l 1
 679 802 l 1
 132 802 l 1
 132 589 l 1
 679 589 l 1
 679 529 l 1
 132 529 l 1
 132 315 l 1
 679 315 l 1
EndSplineSet
Substitution2: "Single Substitution lookup 23 subtable" dy.ccv.2
Substitution2: "Single Substitution lookup 36 subtable" dy.ccv.2
Substitution2: "Single Substitution lookup 54 subtable" dy.ccv.1
Substitution2: "Single Substitution lookup 56 subtable" dy.cvc.1
Substitution2: "Single Substitution lookup 60 subtable" dy.cvc.3
Substitution2: "Single Substitution lookup 64 subtable" dy.ccv.2
Substitution2: "Single Substitution lookup 71 subtable" dy.cvc.1
Substitution2: "Single Substitution lookup 82 subtable" dy.cvc.3
EndChar

StartChar: ty
Encoding: 2 60258 2
Width: 750
VWidth: 2427
Flags: W
HStem: 255 60<72 619> 529 60<72 619> 802 60<72 619>
VStem: 619 60<315 529 589 802>
CounterMasks: 1 e0
AnchorPoint: "Above" 375 230 basechar 0
LayerCount: 2
Back
SplineSet
101.868164062 832.198242188 m 5
 649.12109375 832.198242188 l 5
 649.12109375 284.9453125 l 5
 101.868164062 284.9453125 l 1029
101.868164062 558.571289062 m 5
 649.12109375 558.571289062 l 1029
EndSplineSet
Fore
SplineSet
72 529 m 1
 72 589 l 1
 619 589 l 1
 619 802 l 1
 72 802 l 1
 72 862 l 1
 649 862 l 2
 657.666666667 862 664.833333333 858.833333333 670.5 852.5 c 0
 676.166666667 846.166666667 679 839.333333333 679 832 c 2
 679 285 l 2
 679 276.333333333 675.833333333 269.166666667 669.5 263.5 c 0
 663.166666667 257.833333333 656.333333333 255 649 255 c 2
 72 255 l 1
 72 315 l 1
 619 315 l 1
 619 529 l 1
 72 529 l 1
EndSplineSet
Substitution2: "Single Substitution lookup 82 subtable" ty.cvc.3
Substitution2: "Single Substitution lookup 71 subtable" ty.cvc.1
Substitution2: "Single Substitution lookup 64 subtable" ty.ccv.2
Substitution2: "Single Substitution lookup 60 subtable" ty.cvc.3
Substitution2: "Single Substitution lookup 56 subtable" ty.cvc.1
Substitution2: "Single Substitution lookup 54 subtable" ty.ccv.1
Substitution2: "Single Substitution lookup 28 subtable" ty.ccv.2
Substitution2: "Single Substitution lookup 15 subtable" ty.ccv.2
EndChar

StartChar: zy
Encoding: 3 60259 3
Width: 750
VWidth: 2427
Flags: W
HStem: 255 60<187 483.496> 529 60<187 505> 842 20G<127 187> 842 20G<127 187>
VStem: 127 60<315 529 589 862>
DStem2: 647 851 695 814 0.6 0.8<-186.969 29.2248>
AnchorPoint: "Above" 375 230 basechar 0
LayerCount: 2
Back
SplineSet
157.912109375 558.571289062 m 5
 515.0546875 558.571289062 l 1029
156.813476562 832.198242188 m 5
 156.813476562 285.494140625 l 5
 509.560546875 285.494140625 l 5
 526.549804688 520.936523438 539.8125 662.146484375 671.098632812 832.198242188 c 1029
EndSplineSet
Fore
SplineSet
127 862 m 1xe8
 187 862 l 1
 187 589 l 1
 515 589 l 1
 538.333333333 680.333333333 582.333333333 767.666666667 647 851 c 1
 666 874 l 1
 681.333333333 862 697 850 713 838 c 1
 695 814 l 2
 664.333333333 774 639.5 735.5 620.5 698.5 c 0
 601.5 661.5 586.666666667 619.5 576 572.5 c 0
 565.333333333 525.5 557.833333333 483.333333333 553.5 446 c 0
 549.166666667 408.666666667 544.333333333 354.333333333 539 283 c 0
 538.333333333 275.666666667 535.333333333 269.166666667 530 263.5 c 0
 524.666666667 257.833333333 518 255 510 255 c 2
 157 255 l 2
 149.666666667 255 142.833333333 257.833333333 136.5 263.5 c 0
 130.166666667 269.166666667 127 276.333333333 127 285 c 2
 127 862 l 1xe8
187 529 m 1
 187 315 l 1
 482 315 l 1
 490 416.333333333 497.666666667 487.666666667 505 529 c 1
 187 529 l 1
EndSplineSet
Substitution2: "Single Substitution lookup 82 subtable" zy.cvc.3
Substitution2: "Single Substitution lookup 71 subtable" zy.cvc.1
Substitution2: "Single Substitution lookup 64 subtable" zy.ccv.2
Substitution2: "Single Substitution lookup 60 subtable" zy.cvc.3
Substitution2: "Single Substitution lookup 56 subtable" zy.cvc.1
Substitution2: "Single Substitution lookup 54 subtable" zy.ccv.1
Substitution2: "Single Substitution lookup 46 subtable" zy.ccv.2
EndChar

StartChar: sy
Encoding: 4 60260 4
Width: 750
VWidth: 2427
Flags: W
HStem: 243 21G<99 122.652> 255 21G<619 679> 529 60<291 619> 802 60<326.117 619>
VStem: 619 60<255 529 589 802>
DStem2: 60 280 107 243 0.616622 0.787259<-0.257174 258.599>
AnchorPoint: "Above" 375 230 basechar 0
LayerCount: 2
Back
SplineSet
101.868164062 284.9453125 m 5
 199.8125 407.999023438 261.185546875 483.153320312 302.966796875 832.198242188 c 5
 649.12109375 832.198242188 l 5
 649.12109375 284.9453125 l 1029
278.791015625 558.571289062 m 5
 649.12109375 558.571289062 l 1029
EndSplineSet
Fore
SplineSet
107 243 m 1xb8
 91 255 75.3333333333 267.333333333 60 280 c 1
 78 304 l 2
 104.666666667 338 123 361.5 133 374.5 c 0
 143 387.5 157.166666667 410 175.5 442 c 0
 193.833333333 474 207.333333333 505.166666667 216 535.5 c 0
 224.666666667 565.833333333 234.333333333 606.5 245 657.5 c 0
 255.666666667 708.5 265 768 273 836 c 0
 273.666666667 843.333333333 277.166666667 849.5 283.5 854.5 c 0
 289.833333333 859.5 296.333333333 862 303 862 c 2
 649 862 l 2
 657.666666667 862 664.833333333 858.833333333 670.5 852.5 c 0
 676.166666667 846.166666667 679 839.333333333 679 832 c 2
 679 255 l 1
 619 255 l 1x78
 619 529 l 1
 279 529 l 1
 267 491 251.666666667 454.833333333 233 420.5 c 0
 214.333333333 386.166666667 198.833333333 360.833333333 186.5 344.5 c 0
 174.166666667 328.166666667 153.666666667 302 125 266 c 2
 107 243 l 1xb8
291 589 m 1
 619 589 l 1
 619 802 l 1
 329 802 l 1
 319 723.333333333 306.333333333 652.333333333 291 589 c 1
EndSplineSet
Substitution2: "Single Substitution lookup 82 subtable" sy.cvc.3
Substitution2: "Single Substitution lookup 71 subtable" sy.cvc.1
Substitution2: "Single Substitution lookup 64 subtable" sy.ccv.2
Substitution2: "Single Substitution lookup 60 subtable" sy.cvc.3
Substitution2: "Single Substitution lookup 56 subtable" sy.cvc.1
Substitution2: "Single Substitution lookup 54 subtable" sy.ccv.1
Substitution2: "Single Substitution lookup 41 subtable" sy.ccv.2
EndChar

StartChar: gy
Encoding: 5 60261 5
Width: 750
VWidth: 2427
Flags: W
HStem: 243.927 21G<623.646 666.633>
DStem2: 170 568 75.0571 550.278 0.886498 -0.462732<0 585.95> 90 597 170 568 0.901575 0.432624<59.5799 635.59>
AnchorPoint: "Above" 375 230 basechar 0
LayerCount: 2
Back
SplineSet
649.12109375 832.198242188 m 5
 102.966796875 569.560546875 l 5
 649.12109375 284.9453125 l 1029
EndSplineSet
Fore
SplineSet
663.017144727 871.964270913 m 1
 671.677322595 853.977851116 680.337479672 835.991410529 688.997615958 818.00494915 c 1
 170 568 l 1
 689.991704069 297.984023851 l 1
 680.648454875 279.964789505 671.305114702 261.945646139 661.961683551 243.926593751 c 1
 75.0571306555 550.277871361 l 1
 70.5617108745 557.779875207 69.9271890986 566.566896647 73.1535653278 576.638935681 c 0
 76.379941557 586.710974714 81.995419781 593.497996154 90 597 c 2
 663.017144727 871.964270913 l 1
EndSplineSet
Substitution2: "Single Substitution lookup 82 subtable" gy.cvc.3
Substitution2: "Single Substitution lookup 71 subtable" gy.cvc.1
Substitution2: "Single Substitution lookup 64 subtable" gy.ccv.2
Substitution2: "Single Substitution lookup 60 subtable" gy.cvc.3
Substitution2: "Single Substitution lookup 56 subtable" gy.cvc.1
Substitution2: "Single Substitution lookup 54 subtable" gy.ccv.1
Substitution2: "Single Substitution lookup 37 subtable" gy.ccv.2
Substitution2: "Single Substitution lookup 24 subtable" gy.ccv.2
EndChar

StartChar: jy
Encoding: 6 60262 6
Width: 750
VWidth: 2427
Flags: W
HStem: 256 21G<345 405> 529 60<72 309 438 679> 810 49<619.653 669>
VStem: 345 60<256 529>
DStem2: 86 871 63 816 0.930751 -0.365652<0 113.245>
AnchorPoint: "Above" 375 230 basechar 0
LayerCount: 2
Back
SplineSet
102 559 m 1
 649 559 l 1025
375 482 m 1
 375 286 l 1025
102 832 m 1
 159 808 372 635 375 482 c 1
 372 629 578 809 649 830 c 1025
EndSplineSet
Fore
SplineSet
374 597 m 1
 403.333333333 657 445.5 713 500.5 765 c 0
 555.5 817 602 848.333333333 640 859 c 1
 669 859 l 1
 669 839 l 1
 686 810 l 1
 658 810 l 1
 635.333333333 803.333333333 599.833333333 776.666666667 551.5 730 c 0
 503.166666667 683.333333333 465.333333333 636.333333333 438 589 c 1
 679 589 l 1
 679 529 l 1
 405 529 l 1
 405 256 l 1
 345 256 l 1
 345 529 l 1
 72 529 l 1
 72 589 l 1
 309 589 l 1
 281.666666667 635.666666667 243.833333333 680.833333333 195.5 724.5 c 0
 147.166666667 768.166666667 112 794.666666667 90 804 c 2
 63 816 l 1
 74 844 l 1
 86 871 l 1
 114 860 l 2
 148 845.333333333 192.5 812.333333333 247.5 761 c 0
 302.5 709.666666667 344.666666667 655 374 597 c 1
EndSplineSet
Substitution2: "Single Substitution lookup 82 subtable" jy.cvc.3
Substitution2: "Single Substitution lookup 71 subtable" jy.cvc.1
Substitution2: "Single Substitution lookup 64 subtable" jy.ccv.2
Substitution2: "Single Substitution lookup 60 subtable" jy.cvc.3
Substitution2: "Single Substitution lookup 56 subtable" jy.cvc.1
Substitution2: "Single Substitution lookup 54 subtable" jy.ccv.1
Substitution2: "Single Substitution lookup 44 subtable" jy.ccv.2
EndChar

StartChar: xy
Encoding: 7 60263 7
Width: 750
VWidth: 2427
Flags: W
HStem: 249 21G<639 670.333> 261 50<83 148.719> 842 20G<345 405> 842 20G<345 405>
VStem: 345 60<526.519 862>
DStem2: 659 316 639 260 0.930751 -0.365652<-136.361 30.1423>
AnchorPoint: "Above" 375 230 basechar 0
LayerCount: 2
Back
SplineSet
375.296875 629.704101562 m 5
 375.296875 831.901367188 l 1029
648.922851562 287.9453125 m 5
 564.637695312 319.114257812 379.745117188 430.96875 375.296875 629.704101562 c 5
 379.075195312 438.76953125 204.079101562 317.8984375 103.868164062 290.143554688 c 1029
EndSplineSet
Fore
SplineSet
687 306 m 1x68
 680.333333333 287.333333333 673.666666667 268.333333333 667 249 c 1xa8
 639 260 l 2
 592.333333333 277.333333333 543.833333333 305.666666667 493.5 345 c 0
 443.166666667 384.333333333 404.333333333 433 377 491 c 1
 351 431.666666667 312.5 381.833333333 261.5 341.5 c 0
 210.5 301.166666667 160.666666667 274.333333333 112 261 c 1
 83 261 l 1
 83 282 l 1
 67 311 l 1
 96 311 l 1
 120 317.666666667 145.833333333 329.666666667 173.5 347 c 0
 201.166666667 364.333333333 228 385.833333333 254 411.5 c 0
 280 437.166666667 301.666666667 468.333333333 319 505 c 0
 336.333333333 541.666666667 345 579.333333333 345 618 c 2
 345 862 l 1
 405 862 l 1
 405 630 l 2
 405.666666667 588 415.333333333 548.166666667 434 510.5 c 0
 452.666666667 472.833333333 476.166666667 441.333333333 504.5 416 c 0
 532.833333333 390.666666667 559.833333333 369.833333333 585.5 353.5 c 0
 611.166666667 337.166666667 635.666666667 324.666666667 659 316 c 2
 687 306 l 1x68
EndSplineSet
Substitution2: "Single Substitution lookup 82 subtable" xy.cvc.3
Substitution2: "Single Substitution lookup 71 subtable" xy.cvc.1
Substitution2: "Single Substitution lookup 64 subtable" xy.ccv.2
Substitution2: "Single Substitution lookup 60 subtable" xy.cvc.3
Substitution2: "Single Substitution lookup 56 subtable" xy.cvc.1
Substitution2: "Single Substitution lookup 54 subtable" xy.ccv.1
EndChar

StartChar: iy
Encoding: 8 60264 8
Width: 750
VWidth: 2427
Flags: W
HStem: 256 59<132 680> 838 20G<72 132> 838 20G<72 132>
VStem: 72 60<315 858>
AnchorPoint: "Above" 375 230 basechar 0
LayerCount: 2
Back
SplineSet
101.868164062 827.801757812 m 5
 101.868164062 284.9453125 l 5
 650.219726562 285.494140625 l 1029
EndSplineSet
Fore
SplineSet
72 858 m 1xd0
 132 858 l 1
 132 315 l 1
 680 315 l 1
 680 256 l 1
 102 256 l 2
 94.6666666667 256 87.8333333333 258.666666667 81.5 264 c 0
 75.1666666667 269.333333333 72 276.333333333 72 285 c 2
 72 858 l 1xd0
EndSplineSet
Substitution2: "Single Substitution lookup 82 subtable" iy.cvc.3
Substitution2: "Single Substitution lookup 71 subtable" iy.cvc.1
Substitution2: "Single Substitution lookup 64 subtable" iy.ccv.2
Substitution2: "Single Substitution lookup 60 subtable" iy.cvc.3
Substitution2: "Single Substitution lookup 56 subtable" iy.cvc.1
Substitution2: "Single Substitution lookup 54 subtable" iy.ccv.1
EndChar

StartChar: ry
Encoding: 9 60265 9
Width: 750
VWidth: 2427
Flags: W
HStem: 243 21.0417G<94.9913 122 628.962 655.93>
DStem2: 59.5436 284.459 102 243 0.707107 0.707107<0.705587 386.786 447.597 447.597> 375 601 333 559 0.707056 -0.707158<-386.783 0 60.1084 60.1084>
AnchorPoint: "Above" 375 230 basechar 0
LayerCount: 2
Back
SplineSet
101.868164062 284.9453125 m 5
 649.12109375 832.198242188 l 1053
101.868164062 832.198242188 m 5
 649.12109375 284.9453125 l 1029
EndSplineSet
Fore
SplineSet
59.5 832.5 m 1
 74.1224110886 846.077523638 88.1224110886 860.077523638 101.5 874.5 c 1
 375 601 l 1
 649.54149773 874.45635347 l 1
 663.080883764 859.873899744 677.067051188 845.888448587 691.5 832.5 c 1
 418 559 l 1
 691.45635347 284.45850227 l 1
 676.957072331 270.815502536 662.818788391 257.009890559 649.041501651 243.04166634 c 1
 375 516 l 1
 102 243 l 1
 87.982697427 257.203556162 73.8305796037 271.023056919 59.5436465302 284.45850227 c 1
 333 559 l 1
 59.5 832.5 l 1
EndSplineSet
Substitution2: "Single Substitution lookup 82 subtable" ry.cvc.3
Substitution2: "Single Substitution lookup 71 subtable" ry.cvc.1
Substitution2: "Single Substitution lookup 64 subtable" ry.ccv.2
Substitution2: "Single Substitution lookup 60 subtable" ry.cvc.3
Substitution2: "Single Substitution lookup 56 subtable" ry.cvc.1
Substitution2: "Single Substitution lookup 54 subtable" ry.ccv.1
Substitution2: "Single Substitution lookup 52 subtable" ry.ccv.2
Substitution2: "Single Substitution lookup 50 subtable" ry.ccv.2
Substitution2: "Single Substitution lookup 48 subtable" ry.ccv.2
Substitution2: "Single Substitution lookup 45 subtable" ry.ccv.2
Substitution2: "Single Substitution lookup 43 subtable" ry.ccv.2
Substitution2: "Single Substitution lookup 40 subtable" ry.ccv.2
Substitution2: "Single Substitution lookup 33 subtable" ry.ccv.2
Substitution2: "Single Substitution lookup 20 subtable" ry.ccv.2
Substitution2: "Single Substitution lookup 12 subtable" ry.ccv.2
Substitution2: "Single Substitution lookup 10 subtable" ry.ccv.2
Substitution2: "Single Substitution lookup 8 subtable" ry.ccv.2
Substitution2: "Single Substitution lookup 6 subtable" ry.ccv.2
EndChar

StartChar: my
Encoding: 16 60272 16
Width: 750
VWidth: 2427
Flags: W
HStem: 255 60<132 619> 802 60<132 619>
VStem: 72 60<315 802> 619 60<315 802>
AnchorPoint: "Above" 375 230 basechar 0
LayerCount: 2
Back
SplineSet
101.868164062 832.198242188 m 5
 649.12109375 832.198242188 l 5
 649.12109375 284.9453125 l 5
 101.868164062 284.9453125 l 5
 101.868164062 832.198242188 l 5
EndSplineSet
Fore
SplineSet
102 862 m 2
 649 862 l 2
 657.666666667 862 664.833333333 858.833333333 670.5 852.5 c 0
 676.166666667 846.166666667 679 839.333333333 679 832 c 2
 679 285 l 2
 679 276.333333333 675.833333333 269.166666667 669.5 263.5 c 0
 663.166666667 257.833333333 656.333333333 255 649 255 c 2
 102 255 l 2
 93.3333333333 255 86.1666666667 258.166666667 80.5 264.5 c 0
 74.8333333333 270.833333333 72 277.666666667 72 285 c 2
 72 832 l 2
 72 840.666666667 75.1666666667 847.833333333 81.5 853.5 c 0
 87.8333333333 859.166666667 94.6666666667 862 102 862 c 2
132 802 m 1
 132 315 l 1
 619 315 l 1
 619 802 l 1
 132 802 l 1
EndSplineSet
Substitution2: "Single Substitution lookup 82 subtable" my.cvc.3
Substitution2: "Single Substitution lookup 71 subtable" my.cvc.1
Substitution2: "Single Substitution lookup 64 subtable" my.ccv.2
Substitution2: "Single Substitution lookup 60 subtable" my.cvc.3
Substitution2: "Single Substitution lookup 56 subtable" my.cvc.1
Substitution2: "Single Substitution lookup 54 subtable" my.ccv.1
Substitution2: "Single Substitution lookup 38 subtable" my.ccv.2
Substitution2: "Single Substitution lookup 30 subtable" my.ccv.2
Substitution2: "Single Substitution lookup 25 subtable" my.ccv.2
Substitution2: "Single Substitution lookup 17 subtable" my.ccv.2
EndChar

StartChar: by
Encoding: 17 60273 17
Width: 750
VWidth: 2427
Flags: W
HStem: 255 60<132 679> 802 60<132 679>
VStem: 72 60<315 802>
AnchorPoint: "Above" 375 230 basechar 0
LayerCount: 2
Back
SplineSet
649.12109375 284.9453125 m 5
 101.868164062 284.9453125 l 5
 101.868164062 832.198242188 l 5
 649.12109375 832.198242188 l 1029
EndSplineSet
Fore
SplineSet
679 315 m 1
 679 255 l 1
 102 255 l 2
 93.3333333333 255 86.1666666667 258.166666667 80.5 264.5 c 0
 74.8333333333 270.833333333 72 277.666666667 72 285 c 2
 72 832 l 2
 72 840.666666667 75.1666666667 847.833333333 81.5 853.5 c 0
 87.8333333333 859.166666667 94.6666666667 862 102 862 c 2
 679 862 l 1
 679 802 l 1
 132 802 l 1
 132 315 l 1
 679 315 l 1
EndSplineSet
Substitution2: "Single Substitution lookup 82 subtable" by.cvc.3
Substitution2: "Single Substitution lookup 71 subtable" by.cvc.1
Substitution2: "Single Substitution lookup 64 subtable" by.ccv.2
Substitution2: "Single Substitution lookup 60 subtable" by.cvc.3
Substitution2: "Single Substitution lookup 56 subtable" by.cvc.1
Substitution2: "Single Substitution lookup 54 subtable" by.ccv.1
Substitution2: "Single Substitution lookup 34 subtable" by.ccv.2
Substitution2: "Single Substitution lookup 21 subtable" by.ccv.2
EndChar

StartChar: py
Encoding: 18 60274 18
Width: 750
VWidth: 2427
Flags: W
HStem: 255 60<72 619> 802 60<72 619>
VStem: 619 60<315 802>
AnchorPoint: "Above" 375 230 basechar 0
LayerCount: 2
Back
SplineSet
101.868164062 832.198242188 m 5
 649.12109375 832.198242188 l 5
 649.12109375 284.9453125 l 5
 101.868164062 284.9453125 l 1029
EndSplineSet
Fore
SplineSet
72 802 m 1
 72 862 l 1
 649 862 l 2
 657.666666667 862 664.833333333 858.833333333 670.5 852.5 c 0
 676.166666667 846.166666667 679 839.333333333 679 832 c 2
 679 285 l 2
 679 276.333333333 675.833333333 269.166666667 669.5 263.5 c 0
 663.166666667 257.833333333 656.333333333 255 649 255 c 2
 72 255 l 1
 72 315 l 1
 619 315 l 1
 619 802 l 1
 72 802 l 1
EndSplineSet
Substitution2: "Single Substitution lookup 82 subtable" py.cvc.3
Substitution2: "Single Substitution lookup 71 subtable" py.cvc.1
Substitution2: "Single Substitution lookup 64 subtable" py.ccv.2
Substitution2: "Single Substitution lookup 60 subtable" py.cvc.3
Substitution2: "Single Substitution lookup 56 subtable" py.cvc.1
Substitution2: "Single Substitution lookup 54 subtable" py.ccv.1
Substitution2: "Single Substitution lookup 26 subtable" py.ccv.2
Substitution2: "Single Substitution lookup 13 subtable" py.ccv.2
EndChar

StartChar: vy
Encoding: 19 60275 19
Width: 750
VWidth: 2427
Flags: W
HStem: 255 60<132 360.012> 842 20G<72 132> 842 20G<72 132>
VStem: 72 60<315 862>
DStem2: 626 851 673 814 0.616308 0.787505<-224.313 29.297>
AnchorPoint: "Above" 375 230 basechar 0
LayerCount: 2
Back
SplineSet
101.868164062 832.198242188 m 5
 101.868164062 285.494140625 l 5
 375.494140625 285.494140625 l 5
 450.248046875 527.5859375 513.504882812 661.475585938 649.12109375 832.198242188 c 1029
EndSplineSet
Fore
SplineSet
72 862 m 1xd0
 132 862 l 1
 132 315 l 1
 353 315 l 1
 390.333333333 433 428.666666667 531.166666667 468 609.5 c 0
 507.333333333 687.833333333 560 768.333333333 626 851 c 2
 644 874 l 1
 660 862 675.666666667 849.666666667 691 837 c 1
 673 814 l 2
 607 730.666666667 555 650.833333333 517 574.5 c 0
 479 498.166666667 441.333333333 399 404 277 c 0
 399.333333333 262.333333333 389.666666667 255 375 255 c 2
 102 255 l 2
 94.6666666667 255 87.8333333333 257.833333333 81.5 263.5 c 0
 75.1666666667 269.166666667 72 276.333333333 72 285 c 2
 72 862 l 1xd0
EndSplineSet
Substitution2: "Single Substitution lookup 82 subtable" vy.cvc.3
Substitution2: "Single Substitution lookup 71 subtable" vy.cvc.1
Substitution2: "Single Substitution lookup 64 subtable" vy.ccv.2
Substitution2: "Single Substitution lookup 60 subtable" vy.cvc.3
Substitution2: "Single Substitution lookup 56 subtable" vy.cvc.1
Substitution2: "Single Substitution lookup 54 subtable" vy.ccv.1
Substitution2: "Single Substitution lookup 35 subtable" vy.ccv.2
Substitution2: "Single Substitution lookup 22 subtable" vy.ccv.2
EndChar

StartChar: fy
Encoding: 20 60276 20
Width: 750
VWidth: 2427
Flags: W
HStem: 243 21G<99 122.652> 255 21G<619 679> 802 60<326.629 619>
VStem: 619 60<255 802>
DStem2: 60 280 107 243 0.600559 0.799581<-0.502526 276.158> 245 657.5 294.5 599.5 0.181435 0.983403<-200.019 157.342>
AnchorPoint: "Above" 375 230 basechar 0
LayerCount: 2
Back
SplineSet
101.868164062 284.9453125 m 5
 199.8125 407.999023438 261.185546875 483.153320312 302.966796875 832.198242188 c 5
 649.12109375 832.198242188 l 5
 649.12109375 284.9453125 l 1029
EndSplineSet
Fore
SplineSet
107 243 m 1xb0
 91 255 75.3333333333 267.333333333 60 280 c 1
 78 304 l 2
 104.666666667 338 123 361.5 133 374.5 c 0
 143 387.5 157.166666667 410 175.5 442 c 0
 193.833333333 474 207.333333333 505.166666667 216 535.5 c 0
 224.666666667 565.833333333 234.333333333 606.5 245 657.5 c 0
 255.666666667 708.5 265 768 273 836 c 0
 273.666666667 843.333333333 277.166666667 849.5 283.5 854.5 c 0
 289.833333333 859.5 296.333333333 862 303 862 c 2
 649 862 l 2
 657.666666667 862 664.833333333 858.833333333 670.5 852.5 c 0
 676.166666667 846.166666667 679 839.333333333 679 832 c 2
 679 255 l 1
 619 255 l 1x70
 619 802 l 1
 329 802 l 1
 319 722.666666667 307.5 655.166666667 294.5 599.5 c 0
 281.5 543.833333333 265.166666667 495.333333333 245.5 454 c 0
 225.833333333 412.666666667 208.333333333 380.5 193 357.5 c 0
 177.666666667 334.5 155 304 125 266 c 2
 107 243 l 1xb0
EndSplineSet
Substitution2: "Single Substitution lookup 82 subtable" fy.cvc.3
Substitution2: "Single Substitution lookup 71 subtable" fy.cvc.1
Substitution2: "Single Substitution lookup 64 subtable" fy.ccv.2
Substitution2: "Single Substitution lookup 60 subtable" fy.cvc.3
Substitution2: "Single Substitution lookup 56 subtable" fy.cvc.1
Substitution2: "Single Substitution lookup 54 subtable" fy.ccv.1
Substitution2: "Single Substitution lookup 27 subtable" fy.ccv.2
Substitution2: "Single Substitution lookup 14 subtable" fy.ccv.2
EndChar

StartChar: ky
Encoding: 21 60277 21
Width: 750
VWidth: 2427
Flags: W
HStem: 244.219 21G<84.5311 128.001>
DStem2: 60.9844 298.03 89.4048 244.219 0.887877 0.460082<0.262173 589.929> 88.0228 876.047 61.6129 821.197 0.900242 -0.43539<0.0845465 581.085>
AnchorPoint: "Above" 375 230 basechar 0
LayerCount: 2
Back
SplineSet
101.868164062 835.494140625 m 5
 652.41796875 569.560546875 l 5
 101.868164062 284.9453125 l 1029
EndSplineSet
Fore
SplineSet
61.6128846033 821.196614072 m 1
 70.4162571808 839.480061052 79.2195638876 857.763573903 88.0228047238 876.047152624 c 1
 665 597 l 2
 673.046654416 592.976672792 678.663879751 586.056735011 681.851676005 576.240186657 c 0
 685.039472259 566.423638303 684.406697594 557.753700522 679.95335201 550.230373314 c 1
 89.4047820705 244.218841618 l 1
 79.6575006549 262.159360483 70.1840407152 280.096467857 60.9844022513 298.03016374 c 1
 585 569 l 1
 61.6128846033 821.196614072 l 1
EndSplineSet
Substitution2: "Single Substitution lookup 82 subtable" ky.cvc.3
Substitution2: "Single Substitution lookup 71 subtable" ky.cvc.1
Substitution2: "Single Substitution lookup 64 subtable" ky.ccv.2
Substitution2: "Single Substitution lookup 60 subtable" ky.cvc.3
Substitution2: "Single Substitution lookup 56 subtable" ky.cvc.1
Substitution2: "Single Substitution lookup 54 subtable" ky.ccv.1
Substitution2: "Single Substitution lookup 29 subtable" ky.ccv.2
Substitution2: "Single Substitution lookup 16 subtable" ky.ccv.2
EndChar

StartChar: cy
Encoding: 22 60278 22
Width: 750
VWidth: 2427
Flags: W
HStem: 245 21G<78.4286 114> 247 67<618.291 658> 529 60<72 307 440 679> 842 20G<345 405> 842 20G<345 405>
VStem: 345 60<589 862>
DStem2: 62 300 87 245 0.919145 0.393919<1.31306 126.995>
AnchorPoint: "Above" 375 230 basechar 0
LayerCount: 2
Back
SplineSet
102 559 m 5
 649 559 l 1029
375 646 m 5
 375 832 l 1029
102 285 m 5
 159 311 372 483 375 646 c 5
 372 489 578 308 649 285 c 1029
EndSplineSet
Fore
SplineSet
72 529 m 1xa4
 72 589 l 1
 345 589 l 1
 345 862 l 1
 405 862 l 1
 405 589 l 1
 679 589 l 1
 679 529 l 1
 440 529 l 1
 467.333333333 481 504.5 435 551.5 391 c 0
 598.5 347 634 321.333333333 658 314 c 2
 687 304 l 1
 687 276 l 1
 668 247 l 1
 640 247 l 1x74
 602.666666667 259 556.333333333 292.833333333 501 348.5 c 0
 445.666666667 404.166666667 403.333333333 463.333333333 374 526 c 1
 344.666666667 466 302.666666667 410.166666667 248 358.5 c 0
 193.333333333 306.833333333 148.666666667 273.333333333 114 258 c 2
 87 245 l 1
 75 273 l 1
 62 300 l 1
 90 312 l 2
 113.333333333 322.666666667 148.5 349.666666667 195.5 393 c 0
 242.5 436.333333333 279.666666667 481.666666667 307 529 c 1
 72 529 l 1xa4
EndSplineSet
Substitution2: "Single Substitution lookup 82 subtable" cy.cvc.3
Substitution2: "Single Substitution lookup 71 subtable" cy.cvc.1
Substitution2: "Single Substitution lookup 64 subtable" cy.ccv.2
Substitution2: "Single Substitution lookup 60 subtable" cy.cvc.3
Substitution2: "Single Substitution lookup 56 subtable" cy.cvc.1
Substitution2: "Single Substitution lookup 54 subtable" cy.ccv.1
Substitution2: "Single Substitution lookup 39 subtable" cy.ccv.2
EndChar

StartChar: yhy
Encoding: 23 60279 23
Width: 750
VWidth: 2427
Flags: W
HStem: 255 21G<619 679> 842 20G<72 132> 842 20G<72 132>
VStem: 72 60<357 862> 619 60<255 760>
DStem2: 132 357 109 250 0.707107 0.707107<0 629.325>
AnchorPoint: "Above" 375 230 basechar 0
LayerCount: 2
Back
SplineSet
102 832 m 5
 102 285 l 5
 649 832 l 5
 649 285 l 1029
EndSplineSet
Fore
SplineSet
72 862 m 1xd8
 132 862 l 1
 132 357 l 1
 628 853 l 2
 634 859 642.666666667 861.833333333 654 861.5 c 0
 665.333333333 861.166666667 673.666666667 857.666666667 679 851 c 1
 679 255 l 1
 619 255 l 1
 619 760 l 1
 109 250 l 1
 100.333333333 249.333333333 92 252.833333333 84 260.5 c 0
 76 268.166666667 72 276.333333333 72 285 c 2
 72 862 l 1xd8
EndSplineSet
Substitution2: "Single Substitution lookup 82 subtable" yhy.cvc.3
Substitution2: "Single Substitution lookup 71 subtable" yhy.cvc.1
Substitution2: "Single Substitution lookup 64 subtable" yhy.ccv.2
Substitution2: "Single Substitution lookup 60 subtable" yhy.cvc.3
Substitution2: "Single Substitution lookup 56 subtable" yhy.cvc.1
Substitution2: "Single Substitution lookup 54 subtable" yhy.ccv.1
EndChar

StartChar: uy
Encoding: 24 60280 24
Width: 750
VWidth: 2427
Flags: W
HStem: 255 60<72 622>
VStem: 622 60<315 864>
AnchorPoint: "Above" 375 230 basechar 0
LayerCount: 2
Back
SplineSet
101.868164062 285.494140625 m 5
 652.41796875 285.494140625 l 5
 652.41796875 834.395507812 l 1029
EndSplineSet
Fore
SplineSet
72 255 m 1
 72 315 l 1
 622 315 l 1
 622 864 l 1
 682 864 l 1
 682 285 l 2
 682 277.666666667 679.166666667 270.833333333 673.5 264.5 c 0
 667.833333333 258.166666667 660.666666667 255 652 255 c 2
 72 255 l 1
EndSplineSet
Substitution2: "Single Substitution lookup 82 subtable" uy.cvc.3
Substitution2: "Single Substitution lookup 71 subtable" uy.cvc.1
Substitution2: "Single Substitution lookup 64 subtable" uy.ccv.2
Substitution2: "Single Substitution lookup 60 subtable" uy.cvc.3
Substitution2: "Single Substitution lookup 56 subtable" uy.cvc.1
Substitution2: "Single Substitution lookup 54 subtable" uy.ccv.1
EndChar

StartChar: ly
Encoding: 25 60281 25
Width: 750
VWidth: 2427
Flags: W
HStem: 255 60<132 679> 529 60<132 619> 802 60<72 619>
VStem: 72 60<315 529> 619 60<589 802>
CounterMasks: 1 e0
AnchorPoint: "Above" 375 230 basechar 0
LayerCount: 2
Back
SplineSet
101.868164062 832.198242188 m 5
 649.12109375 832.198242188 l 5
 649.12109375 558.571289062 l 5
 101.868164062 558.571289062 l 5
 101.868164062 284.9453125 l 5
 649.12109375 284.9453125 l 1029
EndSplineSet
Fore
SplineSet
72 802 m 1
 72 862 l 1
 649 862 l 2
 657.666666667 862 664.833333333 858.833333333 670.5 852.5 c 0
 676.166666667 846.166666667 679 839.333333333 679 832 c 2
 679 559 l 2
 679 550.333333333 675.833333333 543.166666667 669.5 537.5 c 0
 663.166666667 531.833333333 656.333333333 529 649 529 c 2
 132 529 l 1
 132 315 l 1
 679 315 l 1
 679 255 l 1
 102 255 l 2
 94.6666666667 255 87.8333333333 257.833333333 81.5 263.5 c 0
 75.1666666667 269.166666667 72 276.333333333 72 285 c 2
 72 559 l 2
 72 566.333333333 74.8333333333 573.166666667 80.5 579.5 c 0
 86.1666666667 585.833333333 93.3333333333 589 102 589 c 2
 619 589 l 1
 619 802 l 1
 72 802 l 1
EndSplineSet
Substitution2: "Single Substitution lookup 82 subtable" ly.cvc.3
Substitution2: "Single Substitution lookup 71 subtable" ly.cvc.1
Substitution2: "Single Substitution lookup 64 subtable" ly.ccv.2
Substitution2: "Single Substitution lookup 60 subtable" ly.cvc.3
Substitution2: "Single Substitution lookup 56 subtable" ly.cvc.1
Substitution2: "Single Substitution lookup 54 subtable" ly.ccv.1
Substitution2: "Single Substitution lookup 51 subtable" ly.ccv.2
Substitution2: "Single Substitution lookup 49 subtable" ly.ccv.2
Substitution2: "Single Substitution lookup 47 subtable" ly.ccv.2
Substitution2: "Single Substitution lookup 42 subtable" ly.ccv.2
Substitution2: "Single Substitution lookup 32 subtable" ly.ccv.2
Substitution2: "Single Substitution lookup 19 subtable" ly.ccv.2
Substitution2: "Single Substitution lookup 11 subtable" ly.ccv.2
Substitution2: "Single Substitution lookup 9 subtable" ly.ccv.2
Substitution2: "Single Substitution lookup 7 subtable" ly.ccv.2
Substitution2: "Single Substitution lookup 5 subtable" ly.ccv.2
EndChar

StartChar: denpabu
Encoding: 31 60287 31
Width: 750
VWidth: 230
Flags: W
HStem: 254 60<274.433 475.567> 802 60<274.433 475.567>
VStem: 72 60<455.593 660.407> 618 60<455.593 660.407>
AnchorPoint: "Above" 375 230 basechar 0
LayerCount: 2
Back
SplineSet
102 558 m 4
 102 709 224 832 375 832 c 4
 526 832 648 709 648 558 c 4
 648 407 526 284 375 284 c 4
 224 284 102 407 102 558 c 4
EndSplineSet
Fore
SplineSet
72 558 m 0
 72 642 101.5 713.666666667 160.5 773 c 0
 219.5 832.333333333 291 862 375 862 c 0
 459 862 530.5 832.333333333 589.5 773 c 0
 648.5 713.666666667 678 642 678 558 c 0
 678 474 648.5 402.333333333 589.5 343 c 0
 530.5 283.666666667 459 254 375 254 c 0
 291 254 219.5 283.666666667 160.5 343 c 0
 101.5 402.333333333 72 474 72 558 c 0
132 558 m 0
 132 490.666666667 155.666666667 433.166666667 203 385.5 c 0
 250.333333333 337.833333333 307.666666667 314 375 314 c 0
 442.333333333 314 499.666666667 337.833333333 547 385.5 c 0
 594.333333333 433.166666667 618 490.666666667 618 558 c 0
 618 625.333333333 594.333333333 682.833333333 547 730.5 c 0
 499.666666667 778.166666667 442.333333333 802 375 802 c 0
 307.666666667 802 250.333333333 778.166666667 203 730.5 c 0
 155.666666667 682.833333333 132 625.333333333 132 558 c 0
EndSplineSet
Substitution2: "Single Substitution lookup 77 subtable" denpabu.cvc.1
Substitution2: "Single Substitution lookup 75 subtable" denpabu.cvc.3
Substitution2: "Single Substitution lookup 66 subtable" denpabu.ccv.1
EndChar

StartChar: ebu.cv
Encoding: 42 -1 32
Width: -30
VWidth: 230
Flags: W
HStem: -143 21G<72 132> 106 60<132 679>
VStem: 72 60<-143 106>
AnchorPoint: "Above" 375 230 mark 0
LayerCount: 2
Back
SplineSet
649 136 m 25
 102 136 l 29
 102 -113 l 1049
EndSplineSet
Fore
SplineSet
679 166 m 1
 679 106 l 1
 132 106 l 1
 132 -143 l 1
 72 -143 l 1
 72 136 l 2
 72 143.333333333 74.8333333333 150.166666667 80.5 156.5 c 0
 86.1666666667 162.833333333 93.3333333333 166 102 166 c 2
 679 166 l 1
EndSplineSet
Substitution2: "Single Substitution lookup 73 subtable" ebu.cvc
Substitution2: "Single Substitution lookup 69 subtable" ebu.ccv
EndChar

StartChar: obu.cv
Encoding: 43 -1 33
Width: -30
VWidth: 230
Flags: W
HStem: -143 21G<619 679> 106 60<72 619>
VStem: 619 60<-143 106>
AnchorPoint: "Above" 375 230 mark 0
LayerCount: 2
Back
SplineSet
102 136 m 29
 649 136 l 29
 649 -113 l 1053
EndSplineSet
Fore
SplineSet
72 106 m 1
 72 166 l 1
 649 166 l 2
 657.666666667 166 664.833333333 162.833333333 670.5 156.5 c 0
 676.166666667 150.166666667 679 143.333333333 679 136 c 2
 679 -143 l 1
 619 -143 l 1
 619 106 l 1
 72 106 l 1
EndSplineSet
Substitution2: "Single Substitution lookup 73 subtable" obu.cvc
Substitution2: "Single Substitution lookup 69 subtable" obu.ccv
EndChar

StartChar: ibu.cv
Encoding: 44 -1 34
Width: -30
VWidth: 230
Flags: W
HStem: -143 118G<72 132 345 405> 107 60<132 345 405 679>
VStem: 72 60<-143 107> 345 60<-46 107>
AnchorPoint: "Above" 375 230 mark 0
LayerCount: 2
Back
SplineSet
375 136 m 29
 375 -16 l 1029
649 136.59375 m 5
 102 136.59375 l 5
 102 -112.857421875 l 1029
EndSplineSet
Fore
SplineSet
679 167 m 1
 679 107 l 1
 405 107 l 1
 405 -46 l 1
 345 -46 l 1
 345 107 l 1
 132 107 l 1
 132 -143 l 1
 72 -143 l 1
 72 137 l 2
 72 144.333333333 74.8333333333 151.166666667 80.5 157.5 c 0
 86.1666666667 163.833333333 93.3333333333 167 102 167 c 2
 679 167 l 1
EndSplineSet
Substitution2: "Single Substitution lookup 73 subtable" ibu.cvc
Substitution2: "Single Substitution lookup 69 subtable" ibu.ccv
EndChar

StartChar: ny.cvc.1
Encoding: 32 -1 35
Width: 810
VWidth: 230
Flags: W
HStem: 471.747 60<224.835 586.154> 637.473 60<224.835 586.154> 802.198 60<224.835 586.154>
VStem: 164.835 60<531.747 637.473 697.473 802.198> 586.154 60<531.747 637.473 697.473 802.198>
CounterMasks: 1 e0
AnchorPoint: "Above" 405 230 basechar 0
LayerCount: 2
Back
SplineSet
194.834960938 832.198242188 m 1
 616.154296875 832.198242188 l 1
 616.154296875 501.747070312 l 1
 194.834960938 501.747070312 l 1
 194.834960938 832.198242188 l 1
194.834960938 667.47265625 m 1
 616.154296875 667.47265625 l 1025
194.834960938 832.198242188 m 1
 616.154296875 832.198242188 l 1
 616.154296875 501.747070312 l 1
 194.834960938 501.747070312 l 1
 194.834960938 832.198242188 l 1
194.834960938 667.47265625 m 1
 616.154296875 667.47265625 l 1025
EndSplineSet
Fore
SplineSet
164.834960938 832.198242188 m 2
 164.834960938 840.495446326 167.89771542 847.569747361 174.023224384 853.421145292 c 0
 180.148733347 859.272543223 187.085978865 862.198242188 194.834960938 862.198242188 c 2
 616.154296875 862.198242188 l 2
 624.673261555 862.198242188 631.803002725 858.965562437 637.543520385 852.500202934 c 0
 643.284038045 846.034843432 646.154296875 839.267523183 646.154296875 832.198242188 c 2
 646.154296875 501.747070312 l 2
 646.154296875 493.228105633 642.921617124 486.098364463 636.456257621 480.357846803 c 0
 629.990898119 474.617329142 623.22357787 471.747070312 616.154296875 471.747070312 c 2
 194.834960938 471.747070312 l 2
 186.315996258 471.747070312 179.186255088 474.979750063 173.445737428 481.445109566 c 0
 167.705219767 487.910469068 164.834960937 494.677789317 164.834960938 501.747070313 c 2
 164.834960938 832.198242188 l 2
586.154296875 802.198242188 m 1
 224.834960938 802.198242188 l 1
 224.834960938 697.47265625 l 1
 586.154296875 697.47265625 l 1
 586.154296875 802.198242188 l 1
586.154296875 637.47265625 m 1
 224.834960938 637.47265625 l 1
 224.834960938 531.747070312 l 1
 586.154296875 531.747070312 l 1
 586.154296875 637.47265625 l 1
EndSplineSet
EndChar

StartChar: ny.ccv.1
Encoding: 96 -1 36
Width: 810
VWidth: 230
Flags: W
HStem: 255 60<134 315> 529 60<134 315> 802 60<134 315>
VStem: 74 60<315 529 589 802> 315 60<315 529 589 802>
CounterMasks: 1 e0
AnchorPoint: "Above" 405 230 basechar 0
LayerCount: 2
Back
SplineSet
345 559 m 5
 105 559 l 1029
104 832 m 5
 345 832 l 5
 345 285 l 5
 104 285 l 5
 104 832 l 5
EndSplineSet
Fore
SplineSet
104 862 m 2
 345 862 l 2
 353.666666667 862 360.833333333 858.833333333 366.5 852.5 c 0
 372.166666667 846.166666667 375 839.333333333 375 832 c 2
 375 285 l 2
 375 276.333333333 371.833333333 269.166666667 365.5 263.5 c 0
 359.166666667 257.833333333 352.333333333 255 345 255 c 2
 104 255 l 2
 95.3333333333 255 88.1666666667 258.166666667 82.5 264.5 c 0
 76.8333333333 270.833333333 74 277.666666667 74 285 c 2
 74 832 l 2
 74 840.666666667 77.1666666667 847.833333333 83.5 853.5 c 0
 89.8333333333 859.166666667 96.6666666667 862 104 862 c 2
134 589 m 1
 315 589 l 1
 315 802 l 1
 134 802 l 1
 134 589 l 1
134 529 m 1
 134 315 l 1
 315 315 l 1
 315 529 l 1
 134 529 l 1
EndSplineSet
EndChar

StartChar: ebu.ccv
Encoding: 106 -1 38
Width: 0
VWidth: 230
Flags: W
HStem: -143 118G<74 134 375 435> 106 60<134 375 435 738>
VStem: 74 60<-143 106> 375 60<-46 106>
AnchorPoint: "Above" 405 230 mark 0
LayerCount: 2
Back
SplineSet
405 136 m 5
 405 -16 l 1029
708 136 m 5
 104 136 l 5
 104 -113 l 1053
EndSplineSet
Fore
SplineSet
738 166 m 1
 738 106 l 1
 435 106 l 1
 435 -46 l 1
 375 -46 l 1
 375 106 l 1
 134 106 l 1
 134 -143 l 1
 74 -143 l 1
 74 136 l 2
 74 143.333333333 76.8333333333 150.166666667 82.5 156.5 c 0
 88.1666666667 162.833333333 95.3333333333 166 104 166 c 2
 738 166 l 1
EndSplineSet
EndChar

StartChar: dy.cvc.1
Encoding: 33 -1 40
Width: 810
VWidth: 230
Flags: W
HStem: 472 60<225 646> 637 60<225 646> 802 60<225 646>
VStem: 165 60<532 637 697 802>
CounterMasks: 1 e0
AnchorPoint: "Above" 405 230 basechar 0
LayerCount: 2
Back
SplineSet
197 667 m 5
 616 667 l 1029
616 502 m 5
 195 502 l 5
 195 832 l 5
 616 832 l 1029
EndSplineSet
Fore
SplineSet
646 532 m 1
 646 472 l 1
 195 472 l 2
 186.333333333 472 179.166666667 475.166666667 173.5 481.5 c 0
 167.833333333 487.833333333 165 494.666666667 165 502 c 2
 165 832 l 2
 165 840.666666667 168.166666667 847.833333333 174.5 853.5 c 0
 180.833333333 859.166666667 187.666666667 862 195 862 c 2
 646 862 l 1
 646 802 l 1
 225 802 l 1
 225 697 l 1
 646 697 l 1
 646 637 l 1
 225 637 l 1
 225 532 l 1
 646 532 l 1
EndSplineSet
EndChar

StartChar: ty.cvc.1
Encoding: 34 -1 41
Width: 810
VWidth: 230
Flags: W
HStem: 472 60<165 586> 637 60<165 586> 802 60<165 586>
VStem: 586 60<532 637 697 802>
CounterMasks: 1 e0
AnchorPoint: "Above" 405 230 basechar 0
LayerCount: 2
Back
SplineSet
615 667 m 5
 195 667 l 1029
195 832 m 5
 616 832 l 5
 616 502 l 5
 195 502 l 1029
EndSplineSet
Fore
SplineSet
165 802 m 1
 165 862 l 1
 616 862 l 2
 624.666666667 862 631.833333333 858.833333333 637.5 852.5 c 0
 643.166666667 846.166666667 646 839.333333333 646 832 c 2
 646 502 l 2
 646 493.333333333 642.833333333 486.166666667 636.5 480.5 c 0
 630.166666667 474.833333333 623.333333333 472 616 472 c 2
 165 472 l 1
 165 532 l 1
 586 532 l 1
 586 637 l 1
 165 637 l 1
 165 697 l 1
 586 697 l 1
 586 802 l 1
 165 802 l 1
EndSplineSet
EndChar

StartChar: zy.cvc.1
Encoding: 35 -1 42
Width: 810
VWidth: 230
Flags: W
HStem: 473 60<225 536.314> 637 60<225 542.219> 842 20G<165 225> 842 20G<165 225>
VStem: 165 60<533 637 697 862> 536.314 60.3648<533.262 635.932>
DStem2: 630.715 873.398 665.342 815.944 0.535205 0.844722<-161.013 0>
AnchorPoint: "Above" 405 230 basechar 0
LayerCount: 2
Back
SplineSet
554 667 m 25
 198 667 l 1049
195 832 m 25
 195 503 l 25
 565 503 l 17
 570 568 557 701 640 832 c 1033
EndSplineSet
Fore
SplineSet
165 862 m 1xec
 225 862 l 1
 225 697 l 1
 552.435814687 697 l 1
 564.884377507 751.880747342 585.625220247 802.232802147 614.658342907 848.056164417 c 2
 630.714507325 873.39782151 l 1
 681.39782151 841.285492675 l 1
 665.341657093 815.943835583 l 2
 650.69427416 792.825676978 638.568905127 768.960145147 628.965549993 744.347240091 c 0
 619.362194859 719.734335035 612.516812462 695.273446244 608.4294028 670.964573718 c 0
 604.341993139 646.655701192 601.502275143 625.74293647 599.910248813 608.226279552 c 0
 598.318222483 590.709622634 597.241022312 570.410076882 596.678648302 547.327642294 c 0
 596.116274292 524.245207706 595.527269713 508.702361953 594.911634565 500.699105033 c 0
 594.320731223 493.017361584 591.1234197 486.480408216 585.319699995 481.088244929 c 0
 579.515980291 475.696081643 572.742746959 473 565 473 c 2
 195 473 l 2
 187.666666667 473 180.833333333 475.833333333 174.5 481.5 c 0
 168.166666667 487.166666667 165 494.333333333 165 503 c 2
 165 862 l 1xec
225 637 m 1
 225 533 l 1
 536.313858475 533 l 1
 537.578214796 579.740454767 539.546612793 614.407121434 542.219052465 637 c 1
 225 637 l 1
EndSplineSet
EndChar

StartChar: sy.cvc.1
Encoding: 36 -1 43
Width: 810
VWidth: 230
Flags: W
HStem: 472 21G<149.719 193.957 586 646> 637 60<269.662 586> 802 60<275.686 586>
VStem: 215.321 60.3648<698.081 801.738> 586 60<472 637 697 802>
DStem2: 130.602 493.715 181.285 461.602 0.535205 0.844722<3.09466e-10 162.707>
AnchorPoint: "Above" 405 230 basechar 0
LayerCount: 2
Back
SplineSet
258 667 m 25
 614 667 l 1049
616 502 m 25
 616 832 l 25
 247 832 l 17
 242 767 255 634 172 503 c 1033
EndSplineSet
Fore
SplineSet
646 472 m 1
 586 472 l 1
 586 637 l 1
 259.336337667 637 l 1
 246.865651426 582.51125833 226.200757901 532.492536858 197.341657093 486.943835583 c 2
 181.285492675 461.60217849 l 1
 130.60217849 493.714507325 l 1
 146.658342907 519.056164417 l 2
 161.30572584 542.174323022 173.431094873 566.039854853 183.034450007 590.652759909 c 0
 192.637805141 615.265664965 199.483187538 639.726553756 203.5705972 664.035426282 c 0
 207.658006861 688.344298808 210.497724857 709.25706353 212.089751187 726.773720448 c 0
 213.681777517 744.290377366 214.758977688 764.589923118 215.321351698 787.672357706 c 0
 215.883725708 810.754792294 216.472730287 826.297638047 217.088365435 834.300894967 c 0
 217.679268777 841.982638416 220.8765803 848.519591784 226.680300005 853.911755071 c 0
 232.484019709 859.303918357 239.257253041 862 247 862 c 2
 616 862 l 2
 623.333333333 862 630.166666667 859.166666667 636.5 853.5 c 0
 642.833333333 847.833333333 646 840.666666667 646 832 c 2
 646 472 l 1
586 697 m 1
 586 802 l 1
 275.686141525 802 l 1
 274.411231762 754.869407846 272.40314182 719.869407846 269.661871699 697 c 1
 586 697 l 1
EndSplineSet
EndChar

StartChar: gy.cvc.1
Encoding: 37 -1 44
Width: 810
VWidth: 230
Flags: W
HStem: 463.122 21G<581.954 640.823>
DStem2: 277.214 667 165.112 646.492 0.931047 -0.3649<0 405.634> 184.053 694.931 277.214 667 0.931047 0.3649<76.5455 482.179>
AnchorPoint: "Above" 405 230 basechar 0
LayerCount: 2
Back
SplineSet
616 832 m 1
 195 667 l 1
 616 502 l 1025
EndSplineSet
Fore
SplineSet
632.984417998 870.878394324 m 1
 654.878394325 815.015582002 l 1
 277.214394187 667 l 1
 654.878394325 518.984417998 l 1
 632.984417998 463.121605676 l 1
 165.112023573 646.492021544 l 1
 161.345848994 654.247707957 161.55409645 663.473253096 165.736765939 674.168656959 c 0
 169.919435428 684.864060822 176.024850727 691.784977223 184.053011837 694.931406161 c 2
 632.984417998 870.878394324 l 1
EndSplineSet
EndChar

StartChar: jy.cvc.1
Encoding: 38 -1 45
Width: 810
VWidth: 230
Flags: W
HStem: 472 21G<375 435> 472 21G<375 435> 637 60<165 336.679 467.058 645> 812.218 48.4396<569.889 635.882>
VStem: 375 60<472 635.643>
DStem2: 179.124 871.344 155.656 816.124 0.91653 -0.399967<0.576578 188.731> 295.247 817.909 265.71 766.194 0.807703 -0.58959<-100.282 104.356> 342.601 782.889 304.199 737.574 0.685864 -0.72773<-78.5716 58.023>
AnchorPoint: "Above" 405 230 basechar 0
LayerCount: 2
Back
SplineSet
195 667 m 1
 615 667 l 1025
405 539 m 1
 405 502 l 1029
195 832 m 1
 275 798 401 758 405 539 c 1
 401 749 516 801 616 832 c 1025
EndSplineSet
Fore
SplineSet
375 538.722057197 m 2xb8
 374.311897289 575.356617264 369.960598978 608.115931532 361.946105065 637 c 1
 165 637 l 1
 165 697 l 1
 336.67919617 697 l 1
 331.943175491 704.828876381 326.594858746 712.274156324 320.634245935 719.335839829 c 0
 314.673633125 726.397523333 309.195241327 732.476977792 304.199070543 737.574203204 c 0
 299.202899759 742.671428616 292.656099359 747.974874127 284.558669345 753.484539735 c 0
 276.461239331 758.994205343 270.178464616 763.230817878 265.710345201 766.194377341 c 0
 261.242225785 769.157936803 254.133758682 772.976242271 244.384943893 777.649293743 c 0
 234.636129104 782.322345216 228.0344039 785.431519589 224.579768281 786.976816862 c 0
 221.125132662 788.522114135 213.940431285 791.570683321 203.02566415 796.122524419 c 0
 192.110897015 800.674365517 185.524269228 803.43021486 183.26578079 804.390072446 c 2
 155.655853236 816.124291657 l 1
 179.124291657 871.344146764 l 1
 206.73421921 859.609927554 l 2
 207.434351279 859.312371425 213.756974798 856.683393785 225.702089767 851.722994634 c 0
 237.647204737 846.762595483 245.19651996 843.514412952 248.350035438 841.978447043 c 0
 251.503550915 840.442481133 258.842201104 836.958652815 270.365986003 831.526962087 c 0
 281.889770903 826.09527136 290.18333045 821.555987249 295.246664643 817.909109757 c 0
 300.309998836 814.262232264 307.947582259 809.131276072 318.159414911 802.516241179 c 0
 328.371247564 795.901206286 336.518429256 789.358768008 342.600959987 782.888926344 c 0
 348.683490718 776.41908468 355.729385198 768.928948025 363.738643427 760.418516379 c 0
 371.747901655 751.908084732 378.858083315 742.650439697 385.069188407 732.645581274 c 0
 391.2802935 722.64072285 397.017405601 711.999128537 402.280524712 700.720798334 c 1
 412.960395087 725.251567732 426.233054652 746.869967035 442.098503406 765.575996242 c 0
 457.96395216 784.282025449 475.908175365 799.684834968 495.93117302 811.784424799 c 0
 515.954170675 823.88401463 534.048524232 833.363349725 550.21423369 840.222430084 c 0
 566.379943149 847.081510444 585.383576582 853.893109962 607.225133988 860.657228639 c 1
 635.882362627 860.657228639 l 1
 635.882362627 840.874866012 l 1
 653.632094651 812.217637373 l 1
 624.974866012 812.217637373 l 1
 549.88405196 788.962739915 497.245064473 750.55686079 467.057903549 697 c 1
 645 697 l 1
 645 637 l 1
 444.191325493 637 l 1
 438.640489046 613.678952435 435.576713882 587.870432084 435 559.574438948 c 2
 435 472 l 1
 375 472 l 1
 375 538.722057197 l 2xb8
EndSplineSet
EndChar

StartChar: xy.cvc.1
Encoding: 39 -1 46
Width: 810
VWidth: 230
Flags: W
HStem: 463.195 21G<605.735 641.275> 472.834 49.8223<173.925 248.888> 842 20G<375 435> 842 20G<375 435>
VStem: 375 60<656.246 862>
DStem2: 588.953 544.182 554.677 494.061 0.931728 -0.363156<-111.152 70.2414>
AnchorPoint: "Above" 405 230 basechar 0
LayerCount: 2
Back
SplineSet
405 772 m 1
 405 832 l 1025
616.154296875 501.747070312 m 1
 531.99815342 532.916015625 405 581 405 772 c 1
 405 581 295.103092319 529.501953125 194.834960938 501.747070312 c 1025
EndSplineSet
Fore
SplineSet
626.573728517 529.879532776 m 1x08
 626.573728517 529.879532776 l 1x08
626.573728517 529.879532776 m 2
 654.706190981 519.460101133 l 1
 633.867327696 463.195176207 l 1xa8
 605.734865233 473.614607849 l 2
 584.862266444 481.34520081 567.842997982 488.160616833 554.677059847 494.060855919 c 0
 541.511121712 499.961095004 524.490655713 508.906451011 503.61566185 520.896923938 c 0
 482.740667987 532.887396865 464.180764616 547.551653659 447.935951737 564.889694319 c 0
 431.691138858 582.22773498 417.955341149 601.959250569 406.728558609 624.084241086 c 1
 396.06610476 600.975378598 382.853692654 580.551424842 367.09132229 562.812379819 c 0
 351.328951927 545.073334795 333.733974917 530.492399307 314.306391262 519.069573355 c 0
 294.878807606 507.646747404 276.760073852 498.556720094 259.95019 491.799491425 c 0
 243.140306147 485.042262757 224.102978207 478.720533559 202.83820618 472.834303831 c 1
 173.925439699 472.834303831 l 1
 157.918949214 522.656591551 l 1
 186.831715695 522.656591551 l 1
 208.363895205 528.61684144 227.263529345 535.057551881 243.530618117 541.978722874 c 0
 259.797706889 548.899893866 276.612194979 558.814679878 293.974082388 571.723080907 c 0
 311.335969797 584.631481937 325.582407791 599.567575822 336.713396371 616.531362563 c 0
 347.84438495 633.495149304 357.0082327 655.232396213 364.20493962 681.74310329 c 0
 371.40164654 708.253810367 375 738.339442604 375 772 c 2
 375 862 l 1
 435 862 l 1x68
 435 772 l 2
 435 748.131497135 437.260725924 726.075118318 441.782177771 705.830863548 c 0
 446.303629618 685.586608779 451.615959095 668.388340076 457.719166201 654.23605744 c 0
 463.822373307 640.083774803 472.763903562 626.679524912 484.543756964 614.023307766 c 0
 496.323610367 601.36709062 506.593625176 591.399967643 515.353801393 584.121938835 c 0
 524.113977609 576.843910027 536.481961761 569.202676034 552.457753849 561.198236857 c 0
 568.433545937 553.19379768 580.59878321 547.521560774 588.953465666 544.18152614 c 0
 597.308148123 540.841491506 609.848235739 536.074160385 626.573728517 529.879532776 c 2
EndSplineSet
EndChar

StartChar: iy.cvc.1
Encoding: 40 -1 47
Width: 810
VWidth: 230
Flags: W
HStem: 471.747 60<224.835 646.154> 842.198 20G<164.835 224.835> 842.198 20G<164.835 224.835>
VStem: 164.835 60<531.747 862.198>
AnchorPoint: "Above" 405 230 basechar 0
LayerCount: 2
Back
SplineSet
616.154296875 501.747070312 m 1
 194.834960938 501.747070312 l 1
 194.834960938 832.198242188 l 1025
EndSplineSet
Fore
SplineSet
646.154296875 531.747070312 m 1xd0
 646.154296875 471.747070312 l 1
 194.834960938 471.747070312 l 2
 186.315996258 471.747070312 179.186255088 474.979750063 173.445737428 481.445109566 c 0
 167.705219767 487.910469068 164.834960937 494.677789317 164.834960938 501.747070313 c 2
 164.834960938 862.198242188 l 1
 224.834960938 862.198242188 l 1
 224.834960938 531.747070312 l 1
 646.154296875 531.747070312 l 1xd0
EndSplineSet
EndChar

StartChar: ry.cvc.1
Encoding: 41 -1 48
Width: 810
VWidth: 230
Flags: W
HStem: 459.882 21G<174.219 215.412 595.588 636.781> 628.882 76.2358<367.382 443.618>
VStem: 356.871 97.2585<618.371 715.629>
DStem2: 152.882 507.104 189.896 459.882 0.787031 0.616913<0 259.188 335.733 594.921> 189.896 874.118 152.882 826.896 0.787031 -0.616913<2.27573e-10 259.188 335.733 594.921>
AnchorPoint: "Above" 405 230 basechar 0
LayerCount: 2
Back
SplineSet
195 502 m 1
 616 832 l 1025
195 832 m 1
 616 502 l 1025
EndSplineSet
Fore
SplineSet
152.881669667 826.896447323 m 1
 189.896447323 874.118330333 l 1
 405.5 705.117920872 l 1
 621.103552677 874.118330333 l 1
 658.118330333 826.896447323 l 1
 454.129226324 667 l 1
 658.118330333 507.103552677 l 1
 621.103552677 459.881669667 l 1
 405.5 628.882079128 l 1
 189.896447323 459.881669667 l 1
 152.881669667 507.103552677 l 1
 356.870773676 667 l 1
 152.881669667 826.896447323 l 1
EndSplineSet
EndChar

StartChar: my.cvc.1
Encoding: 48 -1 49
Width: 810
VWidth: 230
Flags: W
HStem: 472.747 60<224.835 586.154> 802.198 60<224.835 586.154>
VStem: 164.835 60<532.747 802.198> 586.154 60<532.747 802.198>
AnchorPoint: "Above" 405 230 basechar 0
LayerCount: 2
Back
SplineSet
194.834960938 832.198242188 m 1
 616.154296875 832.198242188 l 5
 616.154296875 502.747070312 l 5
 194.834960938 502.747070312 l 1
 194.834960938 832.198242188 l 1
EndSplineSet
Fore
SplineSet
194.834960938 862.198242188 m 2
 616.154296875 862.198242188 l 2
 624.673261555 862.198242188 631.803002725 858.965562437 637.543520385 852.500202934 c 0
 643.284038045 846.034843432 646.154296875 839.267523183 646.154296875 832.198242188 c 2
 646.154296875 502.747070312 l 2
 646.154296875 494.228105633 642.921617124 487.098364463 636.456257621 481.357846803 c 0
 629.990898119 475.617329142 623.22357787 472.747070312 616.154296875 472.747070312 c 2
 194.834960938 472.747070312 l 2
 186.315996258 472.747070312 179.186255088 475.979750063 173.445737428 482.445109566 c 0
 167.705219768 488.910469068 164.834960938 495.677789317 164.834960938 502.747070312 c 2
 164.834960938 832.198242188 l 2
 164.834960938 840.717206867 168.067640689 847.846948037 174.533000191 853.587465698 c 0
 180.998359694 859.327983358 187.765679942 862.198242188 194.834960938 862.198242188 c 2
224.834960938 802.198242188 m 1
 224.834960938 532.747070312 l 1
 586.154296875 532.747070312 l 1
 586.154296875 802.198242188 l 1
 224.834960938 802.198242188 l 1
EndSplineSet
EndChar

StartChar: by.cvc.1
Encoding: 49 -1 50
Width: 810
VWidth: 230
Flags: W
HStem: 473 60<225 646> 802 60<225 646>
VStem: 165 60<533 802>
AnchorPoint: "Above" 405 230 basechar 0
LayerCount: 2
Back
SplineSet
616 503 m 5
 195 503 l 1
 195 832 l 1
 616 832 l 1029
EndSplineSet
Fore
SplineSet
646 533 m 1
 646 473 l 1
 195 473 l 2
 186.333333333 473 179.166666667 476.166666667 173.5 482.5 c 0
 167.833333333 488.833333333 165 495.666666667 165 503 c 2
 165 832 l 2
 165 840.666666667 168.166666667 847.833333333 174.5 853.5 c 0
 180.833333333 859.166666667 187.666666667 862 195 862 c 2
 646 862 l 1
 646 802 l 1
 225 802 l 1
 225 533 l 1
 646 533 l 1
EndSplineSet
EndChar

StartChar: py.cvc.1
Encoding: 50 -1 51
Width: 810
VWidth: 230
Flags: W
HStem: 473.197 59.7887<165.014 586.304> 802.198 60<164.835 586.304>
VStem: 586.304 59.85<532.986 802.198>
AnchorPoint: "Above" 405 230 basechar 0
LayerCount: 2
Back
SplineSet
194.834960938 832.198242188 m 1
 616.154296875 832.198242188 l 5
 616.319335938 503.197265625 l 5
 195 503 l 1025
EndSplineSet
Fore
SplineSet
164.834960938 802.198242188 m 1
 164.834960938 862.198242188 l 1
 616.154296875 862.198242188 l 2
 624.450713753 862.198242188 631.523846792 859.135519685 637.373695991 853.01007468 c 0
 643.22354519 846.884629674 646.150410893 839.952368546 646.1542931 832.213291296 c 2
 646.1542931 503.212314733 l 2
 646.158569927 494.68657337 642.953984897 487.553456547 636.540538008 481.812964264 c 0
 630.12709112 476.07247198 623.391372522 473.20057353 616.333382215 473.197268913 c 2
 165.014049565 473.197268913 l 1
 165.014049565 532.985950435 l 1
 586.304290101 532.985950435 l 1
 586.304290101 802.198242188 l 1
 164.834960938 802.198242188 l 1
EndSplineSet
EndChar

StartChar: vy.cvc.1
Encoding: 51 -1 52
Width: 810
VWidth: 230
Flags: W
HStem: 472.747 60<224.835 536.015> 842.198 20G<164.835 224.835> 842.198 20G<164.835 224.835>
VStem: 164.835 60<532.747 862.198> 536.015 60.3648<532.987 713.36>
DStem2: 614.796 848.297 665.425 816.099 0.536633 0.843815<-132.314 30>
AnchorPoint: "Above" 405 230 basechar 0
LayerCount: 2
Back
SplineSet
194.834960938 832.198242188 m 29
 194.834960938 502.747070312 l 29
 564.725585938 502.747070312 l 17
 569.625976562 568 556.89453125 701.34765625 640.110351562 832.198242188 c 1033
EndSplineSet
Fore
SplineSet
164.834960938 862.198242188 m 1xd8
 224.834960938 862.198242188 l 1
 224.834960938 532.747070312 l 1
 536.015446755 532.747070312 l 1
 536.69881554 558.149974274 537.191237768 575.018861646 537.492713439 583.353732428 c 0
 537.79418911 591.68860321 539.42911814 609.947482946 542.397500529 638.130371635 c 0
 545.365882918 666.313260324 549.308373475 689.376277741 554.224972202 707.319423886 c 0
 559.141570928 725.26257003 566.797484522 747.476396392 577.192712983 773.96090297 c 0
 587.587941444 800.445409548 600.1223328 825.224190171 614.79588705 848.297244841 c 2
 630.894889703 873.611709354 l 1
 681.523818729 841.413704047 l 1
 665.424816075 816.099239534 l 2
 650.740892316 793.009879596 638.576604249 769.172342296 628.931951875 744.586627634 c 0
 619.287299501 720.000912973 612.401118535 695.491674193 608.273408977 671.058911296 c 0
 604.14569942 646.626148399 601.275166599 625.705546335 599.661810513 608.297105105 c 0
 598.048454427 590.888663875 596.954600365 570.517610402 596.380248326 547.183944686 c 0
 595.805896287 523.85027897 595.226262027 508.289112284 594.641345547 500.500444626 c 0
 594.061924344 492.784951327 590.867921379 486.230515616 585.059336651 480.837137495 c 0
 579.250751923 475.443759373 572.472835019 472.747070312 564.725585938 472.747070312 c 2
 194.834960938 472.747070312 l 2
 187.765679942 472.747070312 180.998359694 475.617329142 174.533000191 481.357846802 c 0
 168.067640689 487.098364463 164.834960938 494.228105633 164.834960938 502.747070312 c 2
 164.834960938 862.198242188 l 1xd8
EndSplineSet
EndChar

StartChar: fy.cvc.1
Encoding: 52 -1 53
Width: 810
VWidth: 230
Flags: W
HStem: 472.747 21G<587.11 647.11> 472.747 21G<149.602 193.77 587.11 647.11> 802.198 60<275.93 587.11>
VStem: 212.284 57.2643<611.085 801.958> 587.11 60<472.747 802.198>
DStem2: 130.421 493.532 181.05 461.334 0.536633 0.843815<8.43852e-10 162.314>
AnchorPoint: "Above" 405 230 basechar 0
LayerCount: 2
Back
SplineSet
617.110351562 502.747070312 m 25
 617.110351562 832.198242188 l 25
 247.219726562 832.198242188 l 17
 242.319335938 766.9453125 255.05078125 633.59765625 171.834960938 502.747070312 c 1033
EndSplineSet
Fore
SplineSet
647.110351562 472.747070312 m 1xb8
 587.110351562 472.747070312 l 1
 587.110351562 802.198242188 l 1
 275.929865745 802.198242188 l 1
 275.24649696 776.795338226 274.754074732 759.926450854 274.452599061 751.591580072 c 0
 274.15112339 743.25670929 272.51619436 724.997829554 269.547811971 696.814940865 c 0
 266.579429582 668.632052176 262.636939025 645.569034759 257.720340298 627.625888614 c 0
 252.803741572 609.68274247 245.147827978 587.468916108 234.752599517 560.98440953 c 0
 224.357371056 534.499902952 211.8229797 509.721122329 197.14942545 486.648067659 c 2
 181.050422797 461.333603146 l 1
 130.421493771 493.531608453 l 1
 146.520496425 518.846072966 l 2
 161.204420184 541.935432904 173.368708251 565.772970204 183.013360625 590.358684866 c 0
 192.658012999 614.944399527 199.544193965 639.453638307 203.671903523 663.886401204 c 0
 207.79961308 688.319164101 210.670145901 709.239766165 212.283501987 726.648207395 c 0
 213.896858073 744.056648625 214.990712135 764.427702098 215.565064174 787.761367814 c 0
 216.139416213 811.09503353 216.719050473 826.656200216 217.303966953 834.444867874 c 0
 217.883388156 842.160361173 221.077391121 848.714796884 226.885975849 854.108175005 c 0
 232.694560577 859.501553127 239.472477481 862.198242188 247.219726562 862.198242188 c 2
 617.110351562 862.198242188 l 2
 624.179632558 862.198242188 630.946952806 859.327983358 637.412312309 853.587465698 c 0
 643.877671811 847.846948037 647.110351562 840.717206867 647.110351562 832.198242188 c 2
 647.110351562 472.747070312 l 1xb8
146.520496425 518.846072966 m 1
 146.520496425 518.846072966 l 1
EndSplineSet
EndChar

StartChar: ky.cvc.1
Encoding: 53 -1 54
Width: 810
VWidth: 230
Flags: W
HStem: 463.868 21G<170.013 228.874>
DStem2: 177.853 871.078 155.955 815.216 0.931023 -0.36496<7.46272e-10 404.822> 155.955 519.729 177.853 463.868 0.931023 0.36496<0 404.822>
AnchorPoint: "Above" 405 230 basechar 0
LayerCount: 2
Back
SplineSet
194.834960938 832.198242188 m 1
 615.0546875 667.47265625 l 5
 194.834960938 502.747070312 l 1025
EndSplineSet
Fore
SplineSet
155.955466802 815.216341948 m 1
 177.853060698 871.077736324 l 1
 626.003484448 695.403353438 l 2
 634.031504871 692.25637988 640.136479893 685.335518163 644.318409516 674.640768288 c 0
 648.500339139 663.946018413 648.707980331 654.720952679 644.941333095 646.965571086 c 1
 177.853060698 463.867576176 l 1
 155.955466802 519.728970552 l 1
 532.853875462 667.47265625 l 1
 155.955466802 815.216341948 l 1
EndSplineSet
EndChar

StartChar: cy.cvc.1
Encoding: 54 -1 55
Width: 810
VWidth: 230
Flags: W
HStem: 463.656 21G<604.266 640.376> 474.345 48.4265<175.228 242.776> 637 60<166 346.655 469.838 646> 842 20G<375 435> 842 20G<375 435>
VStem: 375 60<698.237 862>
DStem2: 569.812 554.403 539.791 502.124 0.922722 -0.385467<-98.4129 92.2472>
AnchorPoint: "Above" 405 230 basechar 0
LayerCount: 2
Back
SplineSet
616 667 m 5
 196 667 l 1029
405 786 m 5
 405 832 l 1029
616 503 m 5
 536 537 409 567 405 786 c 5
 409 576 295 534 195 503 c 1029
EndSplineSet
Fore
SplineSet
435 786.277983569 m 2x74
 435.623622892 753.085825047 439.28019928 723.32649719 445.969729165 697 c 1
 646 697 l 1
 646 637 l 1
 469.83845945 637 l 1
 476.013379719 626.456701576 483.269149563 616.708099075 491.60576898 607.754192496 c 0
 499.942388398 598.800285917 507.673940022 591.460230657 514.800423854 585.734026714 c 0
 521.926907686 580.007822772 531.25656176 574.062646832 542.789386076 567.898498895 c 0
 554.322210392 561.734350958 563.329836214 557.23574394 569.812263542 554.402677843 c 0
 576.29469087 551.569611746 586.305439199 547.432881897 599.84450853 541.992488296 c 0
 613.383577861 536.552094695 622.680148088 532.757907781 627.73421921 530.609927554 c 2
 655.344146764 518.875708343 l 1
 631.875708343 463.655853236 l 1xb4
 604.26578079 475.390072446 l 2
 602.0958321 476.312300639 592.563928791 480.175658008 575.670070861 486.980144553 c 0
 558.776212931 493.784631097 546.816664005 498.832592371 539.791424082 502.124028373 c 0
 532.766184159 505.415464375 521.382977586 511.584418553 505.641804362 520.630890907 c 0
 489.900631138 529.677363262 477.355744405 538.483849492 468.007144164 547.050349597 c 0
 458.658543922 555.616849702 448.272099032 566.891913641 436.847809493 580.875541413 c 0
 425.423519954 594.859169185 415.773628426 610.014006637 407.898134909 626.340053767 c 1
 399.257545854 606.957563241 388.412941294 589.388329378 375.364321229 573.632352177 c 0
 362.315701163 557.876374976 349.695377159 545.167835399 337.503349217 535.506733447 c 0
 325.311321275 525.845631494 310.230255194 516.66410481 292.260150976 507.962153396 c 0
 274.290046758 499.260201981 259.671678071 492.90904542 248.405044914 488.908683712 c 0
 237.138411758 484.908322003 222.297717831 480.053854171 203.882963133 474.345280215 c 1
 175.228243348 474.345280215 l 1
 175.228243348 494.117036867 l 1
 157.462317081 522.771756652 l 1
 186.117036867 522.771756652 l 1
 223.529552965 534.369636643 255.680082828 548.902161062 282.568626455 566.369329911 c 0
 309.457170081 583.83649876 330.819321762 607.380055456 346.655081498 637 c 1
 166 637 l 1
 166 697 l 1
 367.718674927 697 l 1
 372.064446062 717.672219259 374.49155442 740.43756742 375 765.296044484 c 2
 375 862 l 1
 435 862 l 1
 435 786.277983569 l 2x74
EndSplineSet
EndChar

StartChar: yhy.cvc.1
Encoding: 55 -1 56
Width: 810
VWidth: 230
Flags: W
HStem: 473 21G<586 646> 473 21G<586 646> 842 20G<165 225> 842 20G<165 225>
VStem: 165 60<564.518 862> 586 60<473 770.482>
DStem2: 225 564.518 213.473 479.362 0.787939 0.615753<0 411.269>
AnchorPoint: "Above" 405 230 basechar 0
LayerCount: 2
Back
SplineSet
616 503 m 1
 616 832 l 1
 195 503 l 5
 195 832 l 1029
EndSplineSet
Fore
SplineSet
646 473 m 1xac
 586 473 l 1
 586 770.481817844 l 1
 213.472589838 479.36182273 l 2
 206.70968178 474.005985892 198.122412031 472.060860835 187.71078059 473.526447558 c 0
 177.29914915 474.992034282 169.728888953 479.296196617 165 486.438934562 c 1
 165 862 l 1
 225 862 l 1
 225 564.518182156 l 1
 610.576523515 865.835702907 l 1
 619.116394574 866.507788008 627.155275086 863.206644435 634.693165052 855.932272187 c 0
 642.231055017 848.65789994 646 840.680475878 646 832 c 2
 646 473 l 1xac
EndSplineSet
EndChar

StartChar: uy.cvc.1
Encoding: 56 -1 57
Width: 810
VWidth: 230
Flags: W
HStem: 472.747 60<164.835 586.154> 842.198 20G<586.154 646.154> 842.198 20G<586.154 646.154>
VStem: 586.154 60<532.747 862.198>
AnchorPoint: "Above" 405 230 basechar 0
LayerCount: 2
Back
SplineSet
616.154296875 832.198242188 m 25
 616.154296875 502.747070312 l 25
 194.834960938 502.747070312 l 1053
EndSplineSet
Fore
SplineSet
586.154296875 862.198242188 m 1xd0
 646.154296875 862.198242188 l 1
 646.154296875 502.747070312 l 2
 646.154296875 494.228105633 642.921617124 487.098364463 636.456257621 481.357846803 c 0
 629.990898119 475.617329142 623.22357787 472.747070312 616.154296875 472.747070312 c 2
 164.834960938 472.747070312 l 1
 164.834960938 532.747070312 l 1
 586.154296875 532.747070312 l 1
 586.154296875 862.198242188 l 1xd0
EndSplineSet
EndChar

StartChar: ly.cvc.1
Encoding: 57 -1 58
Width: 810
VWidth: 230
Flags: W
HStem: 472.747 60<224.916 646.154> 637.473 60<224.916 586.154> 802.198 60<164.835 586.154>
VStem: 164.835 60.0815<532.747 637.473> 586.154 60<697.473 802.198>
CounterMasks: 1 e0
AnchorPoint: "Above" 405 230 basechar 0
LayerCount: 2
Back
SplineSet
194.834960938 832.198242188 m 25
 616.154296875 832.198242188 l 25
 616.154296875 667.47265625 l 25
 194.934570312 667.47265625 l 25
 194.834960938 502.747070312 l 25
 616.154296875 502.747070312 l 1049
EndSplineSet
Fore
SplineSet
164.834960938 802.198242188 m 1
 164.834960938 862.198242188 l 1
 616.154296875 862.198242188 l 2
 624.673261555 862.198242188 631.803002725 858.965562437 637.543520385 852.500202934 c 0
 643.284038045 846.034843432 646.154296875 839.267523183 646.154296875 832.198242188 c 2
 646.154296875 667.47265625 l 2
 646.154296875 658.95369157 642.921617124 651.8239504 636.456257621 646.08343274 c 0
 629.990898119 640.34291508 623.22357787 637.47265625 616.154296875 637.47265625 c 2
 224.916434831 637.47265625 l 1
 224.916434831 532.747070312 l 1
 646.154296875 532.747070312 l 1
 646.154296875 472.747070312 l 1
 194.834960938 472.747070312 l 2
 187.75386045 472.747070312 180.982298246 475.620114817 174.520274327 481.366203827 c 0
 168.058250407 487.112292838 164.829814439 494.24529532 164.834966422 502.765211275 c 2
 164.834966422 667.490797213 l 2
 164.839640844 675.220961372 167.781962319 682.150478918 173.661930847 688.279349851 c 0
 179.541899375 694.408220784 186.632779197 697.47265625 194.934570312 697.47265625 c 2
 586.154296875 697.47265625 l 1
 586.154296875 802.198242188 l 1
 164.834960938 802.198242188 l 1
EndSplineSet
EndChar

StartChar: dy.ccv.1
Encoding: 97 -1 59
Width: 810
VWidth: 230
Flags: W
HStem: 254.945 60<134.396 375.055> 528.571 60<134.396 375.055> 802.198 60<134.396 375.055>
VStem: 74.3955 300.659<256.259 314.945 528.571 588.571 802.198 861.052> 74.3955 60<314.945 528.571 588.571 802.198>
CounterMasks: 1 e0
AnchorPoint: "Above" 405 230 basechar 0
LayerCount: 2
Back
SplineSet
345.0546875 558.571289062 m 29
 104.395507812 558.571289062 l 1053
345.0546875 832.198242188 m 29
 104.395507812 832.198242188 l 29
 104.395507812 284.9453125 l 29
 345.0546875 284.9453125 l 1053
EndSplineSet
Fore
SplineSet
375.0546875 862.198242188 m 1xf0
 375.0546875 802.198242188 l 1xf0
 134.395507812 802.198242188 l 1
 134.395507812 588.571289062 l 1xe8
 375.0546875 588.571289062 l 1
 375.0546875 528.571289062 l 1xf0
 134.395507812 528.571289062 l 1
 134.395507812 314.9453125 l 1xe8
 375.0546875 314.9453125 l 1
 375.0546875 254.9453125 l 1
 104.395507812 254.9453125 l 2
 97.3262268168 254.9453125 90.5589065681 257.81557133 84.0935470659 263.55608899 c 0
 77.6281875636 269.29660665 74.3955078125 276.42634782 74.3955078125 284.9453125 c 2
 74.3955078125 832.198242188 l 2
 74.3955078125 839.267523183 77.2657666426 846.034843432 83.0062843028 852.500202934 c 0
 88.746801963 858.965562437 95.8765431327 862.198242188 104.395507812 862.198242188 c 2
 375.0546875 862.198242188 l 1xf0
EndSplineSet
EndChar

StartChar: ty.ccv.1
Encoding: 98 -1 60
Width: 810
VWidth: 230
Flags: W
HStem: 254.945 60<74.3955 315.055> 528.571 60<74.3955 315.055> 802.198 60<74.3955 315.055>
VStem: 74.3955 300.659<256.091 314.945 528.571 588.571 802.198 860.884> 315.055 60<314.945 528.571 588.571 802.198>
CounterMasks: 1 e0
AnchorPoint: "Above" 405 230 basechar 0
LayerCount: 2
Back
SplineSet
104.395507812 558.571289062 m 29
 345.0546875 558.571289062 l 1053
104.395507812 284.9453125 m 29
 345.0546875 284.9453125 l 29
 345.0546875 832.198242188 l 29
 104.395507812 832.198242188 l 1053
EndSplineSet
Fore
SplineSet
74.3955078125 254.9453125 m 1xf0
 74.3955078125 314.9453125 l 1xf0
 315.0546875 314.9453125 l 1
 315.0546875 528.571289062 l 1xe8
 74.3955078125 528.571289062 l 1
 74.3955078125 588.571289062 l 1xf0
 315.0546875 588.571289062 l 1
 315.0546875 802.198242188 l 1xe8
 74.3955078125 802.198242188 l 1
 74.3955078125 862.198242188 l 1
 345.0546875 862.198242188 l 2
 352.123968495 862.198242188 358.891288744 859.327983358 365.356648246 853.587465697 c 0
 371.822007749 847.846948037 375.0546875 840.717206867 375.0546875 832.198242188 c 2
 375.0546875 284.9453125 l 2
 375.0546875 277.876031505 372.18442867 271.108711256 366.44391101 264.643351754 c 0
 360.70339335 258.177992251 353.57365218 254.9453125 345.0546875 254.9453125 c 2
 74.3955078125 254.9453125 l 1xf0
EndSplineSet
EndChar

StartChar: zy.ccv.1
Encoding: 99 -1 61
Width: 810
VWidth: 230
Flags: W
HStem: 254.945 60<134.396 214.425> 541.758 60<134.396 241.715> 842.198 20G<74.3955 134.396> 842.198 20G<74.3955 134.396>
VStem: 74.3955 60<314.945 541.758 601.758 862.198>
DStem2: 324.79 840.88 380.705 819.12 0.362669 0.931918<-222.986 30>
AnchorPoint: "Above" 405 230 basechar 0
LayerCount: 2
Back
SplineSet
117.58203125 571.7578125 m 29
 256.043945312 571.7578125 l 1053
104.395507812 832.198242188 m 29
 104.395507812 284.9453125 l 29
 240.659179688 284.9453125 l 21
 253.796875 470.443359375 283.966796875 653.26171875 352.747070312 830 c 1037
EndSplineSet
Fore
SplineSet
74.3955078125 862.198242188 m 1xe8
 134.395507812 862.198242188 l 1
 134.395507812 601.7578125 l 1
 253.627308943 601.7578125 l 1
 271.843151128 686.074242126 295.563892922 765.78166525 324.789534325 840.880081872 c 2
 335.669616197 868.837617859 l 1
 391.584688171 847.077454116 l 1
 380.7046063 819.119918128 l 2
 321.913217611 668.049146381 285.206422575 489.284475112 270.584221191 282.825904322 c 0
 270.081570306 275.728711454 266.954943425 269.307647934 261.204340549 263.56271376 c 0
 255.453737673 257.817779587 248.60535072 254.9453125 240.659179688 254.9453125 c 2
 104.395507812 254.9453125 l 2
 97.3262268168 254.9453125 90.5589065681 257.81557133 84.0935470659 263.55608899 c 0
 77.6281875636 269.29660665 74.3955078125 276.42634782 74.3955078125 284.9453125 c 2
 74.3955078125 862.198242188 l 1xe8
134.395507812 541.7578125 m 1
 134.395507812 314.9453125 l 1
 212.840010131 314.9453125 l 1
 219.362252856 396.068935932 228.987195768 471.673102598 241.714838866 541.7578125 c 1
 134.395507812 541.7578125 l 1
EndSplineSet
EndChar

StartChar: sy.ccv.1
Encoding: 100 -1 62
Width: 810
VWidth: 230
Flags: W
HStem: 248.153 21G<62.7506 121.852> 255 21G<315 375> 515 60<208.016 315> 802 60<235.258 315>
VStem: 315 60<255 515 575 802>
DStem2: 58.1525 269.945 114.055 248.153 0.363208 0.931708<3.63214e-11 252.868>
AnchorPoint: "Above" 405 230 basechar 0
LayerCount: 2
Back
SplineSet
332 545 m 5
 193 545 l 1029
345 285 m 5
 345 832 l 5
 209 832 l 5
 196 647 166 464 97 287 c 1029
EndSplineSet
Fore
SplineSet
375 255 m 1x78
 315 255 l 1x78
 315 515 l 1
 196.107436404 515 l 1
 177.898637442 430.713716399 154.179905324 351.081634358 124.951240052 276.103753878 c 2
 114.05499393 248.152513826 l 1xb8
 58.1525138259 269.94500607 l 1
 69.0487599479 297.896246122 l 2
 127.884908639 448.823757981 164.559920483 627.559316767 179.073795479 834.10292248 c 0
 179.573233831 841.210314415 182.698916127 847.636675319 188.450842366 853.382005191 c 0
 194.202768605 859.127335064 201.052487816 862 209 862 c 2
 345 862 l 2
 352.333333333 862 359.166666667 859.166666667 365.5 853.5 c 0
 371.833333333 847.833333333 375 840.666666667 375 832 c 2
 375 255 l 1x78
315 575 m 1
 315 802 l 1
 236.83433616 802 l 1
 230.353774246 720.820231788 220.747666286 645.153565121 208.016012279 575 c 1
 315 575 l 1
EndSplineSet
EndChar

StartChar: gy.ccv.1
Encoding: 101 -1 63
Width: 810
VWidth: 230
Flags: W
HStem: 242.656 21G<324.708 365.019>
VStem: 74.3039 312.011
DStem2: 144.119 557.885 81.5097 538.146 0.661803 -0.749678<0 367.52> 81.6236 577.982 144.119 557.885 0.666081 0.745879<26.6366 390.25>
AnchorPoint: "Above" 405 230 basechar 0
LayerCount: 2
Back
SplineSet
343.956054688 826.703125 m 5
 104 558 l 5
 345 285 l 1029
EndSplineSet
Fore
SplineSet
341.562129928 869.061939009 m 1
 386.314868696 829.09704976 l 1
 144.118516123 557.88523606 l 1
 387.344424637 282.363771229 l 1
 342.363771229 242.655575363 l 1
 81.5096732957 538.145902067 l 2
 76.8971569111 543.37086876 74.4952422244 549.789133776 74.3039292354 557.400697115 c 0
 74.1126162465 565.012260454 76.5525167065 571.872842957 81.6236306155 577.982444624 c 2
 341.562129928 869.061939009 l 1
EndSplineSet
EndChar

StartChar: jy.ccv.1
Encoding: 102 -1 64
Width: 810
VWidth: 230
Flags: W
HStem: 528.571 60<74.3955 188.942 258.628 375.055>
VStem: 194.176 60<254.945 528.571>
DStem2: 101.308 874.512 62.0816 829.111 0.756685 -0.65378<4.95102e-10 128.127> 324.073 853.641 366.036 810.756 0.714754 0.699376<-117.156 30>
AnchorPoint: "Above" 405 230 basechar 0
LayerCount: 2
Back
SplineSet
104.395507812 558.571289062 m 29
 345.0546875 558.571289062 l 1053
345.0546875 832.198242188 m 21
 276.921875 765.53125 236.627929688 673.956054688 224.17578125 557.47265625 c 1037
104.395507812 832.198242188 m 21
 180.297851562 766.618164062 208.405273438 669.794921875 224.17578125 557.47265625 c 13
 224.17578125 284.9453125 l 1053
EndSplineSet
Fore
SplineSet
62.081567083 829.111104365 m 1
 101.30836999 874.512182917 l 1
 124.008909266 854.898781464 l 2
 169.145612123 815.900400736 202.679663776 763.025113431 224.611064226 696.272919551 c 1
 247.050705639 758.260088757 280.2048169 810.716066051 324.073398007 853.640851432 c 2
 345.516007252 874.622140925 l 1
 387.478586237 831.736922435 l 1
 366.035976993 810.755632943 l 2
 309.697844174 755.629567796 273.895300068 681.568119836 258.628344675 588.571289062 c 1
 375.0546875 588.571289062 l 1
 375.0546875 528.571289062 l 1
 254.17578125 528.571289062 l 1
 254.17578125 254.9453125 l 1
 194.17578125 254.9453125 l 1
 194.17578125 528.571289062 l 1
 74.3955078125 528.571289062 l 1
 74.3955078125 588.571289062 l 1
 188.941762207 588.571289062 l 1
 170.965093497 691.391137732 136.245208214 765.033275682 84.7821063592 809.497702911 c 2
 62.081567083 829.111104365 l 1
EndSplineSet
EndChar

StartChar: xy.ccv.1
Encoding: 103 -1 65
Width: 810
VWidth: 230
Flags: W
HStem: 242.521 21.11G<84.3645 124.374 325.441 365.422> 842.198 20G<195.274 255.274> 842.198 20G<195.274 255.274>
VStem: 195.274 60<457.265 862.198>
DStem2: 61.9716 285.407 103.934 242.521 0.714754 0.699376<0 156.454> 364.668 307.646 325.441 262.245 0.756685 -0.65378<-100.938 30>
AnchorPoint: "Above" 405 230 basechar 0
LayerCount: 2
Back
SplineSet
104.395507812 284.9453125 m 21
 172.528320312 351.612304688 212.822265625 443.1875 225.274414062 559.670898438 c 1037
345.0546875 284.9453125 m 21
 269.15234375 350.525390625 241.044921875 447.348632812 225.274414062 559.670898438 c 13
 225.274414062 832.198242188 l 1053
EndSplineSet
Fore
SplineSet
387.36862823 288.032450323 m 1xd0
 348.141825323 242.63137177 l 1
 325.441286047 262.244773224 l 2
 280.304583191 301.24315395 246.770531537 354.118441254 224.839131086 420.870635136 c 1
 202.399489671 358.883465928 169.245378411 306.427488634 125.376797305 263.502703255 c 2
 103.93418806 242.521413763 l 1
 61.971609075 285.406632252 l 1
 83.4142183199 306.387921745 l 2
 157.987682148 379.357000049 195.274414062 464.323626477 195.274414062 561.287801029 c 2
 195.274414062 862.198242188 l 1
 255.274414062 862.198242188 l 1
 255.274414062 560.191310206 l 1
 263.68746014 501.525348197 276.222873022 451.50730493 292.880652707 410.137180403 c 0
 309.538432393 368.767055877 333.467577808 334.603279668 364.668088953 307.645851776 c 2
 387.36862823 288.032450323 l 1xd0
255.104453221 556.48204852 m 1
 255.104453221 556.48204852 l 1
EndSplineSet
EndChar

StartChar: iy.ccv.1
Encoding: 104 -1 66
Width: 810
VWidth: 230
Flags: W
HStem: 254.945 60<134.396 375.055> 842.198 20G<74.3955 134.396> 842.198 20G<74.3955 134.396>
VStem: 74.3955 60<314.945 862.198>
AnchorPoint: "Above" 405 230 basechar 0
LayerCount: 2
Back
SplineSet
104.395507812 832.198242188 m 29
 104.395507812 284.9453125 l 29
 345.0546875 284.9453125 l 1053
EndSplineSet
Fore
SplineSet
74.3955078125 862.198242188 m 1xd0
 134.395507812 862.198242188 l 1
 134.395507812 314.9453125 l 1
 375.0546875 314.9453125 l 1
 375.0546875 254.9453125 l 1
 104.395507812 254.9453125 l 2
 97.3262268168 254.9453125 90.5589065681 257.81557133 84.0935470659 263.55608899 c 0
 77.6281875636 269.29660665 74.3955078125 276.42634782 74.3955078125 284.9453125 c 2
 74.3955078125 862.198242188 l 1xd0
EndSplineSet
EndChar

StartChar: ry.ccv.1
Encoding: 105 -1 67
Width: 810
VWidth: 230
Flags: MW
HStem: 257 21G<74.1593 128.602 319.749 374.192> 483.761 149.622<149.365 298.987>
VStem: 191.427 65.497<525.823 591.32>
DStem2: 119.847 871.711 64.883 847.65 0.401012 -0.916073<0 260.163 397.227 657.39> 64.883 269.493 119.847 245.433 0.401012 0.916073<0 260.163 397.227 657.39>
AnchorPoint: "Above" 405 230 basechar 0
LayerCount: 2
Back
SplineSet
104.395507812 284.9453125 m 29
 343.956054688 832.198242188 l 1053
104.395507812 832.198242188 m 29
 343.956054688 284.9453125 l 1053
EndSplineSet
Fore
SplineSet
64.8829661445 847.650072207 m 1
 119.847337832 871.710783855 l 1
 224.17578125 633.382532167 l 1
 328.504224668 871.710783855 l 1
 383.468596355 847.650072207 l 1
 256.924268038 558.571777344 l 1
 383.468596355 269.493482481 l 1
 328.504224668 245.432770832 l 1
 224.17578125 483.761022521 l 1
 119.847337832 245.432770832 l 1
 64.8829661449 269.493482481 l 1
 191.427294462 558.571777344 l 1
 64.8829661445 847.650072207 l 1
EndSplineSet
EndChar

StartChar: my.ccv.1
Encoding: 112 -1 68
Width: 810
VWidth: 230
Flags: W
HStem: 254.945 60<134.396 315.055> 802.198 60<134.396 315.055>
VStem: 74.3955 60<314.945 802.198> 315.055 60<314.945 802.198>
AnchorPoint: "Above" 405 230 basechar 0
LayerCount: 2
Back
SplineSet
104.395507812 832.198242188 m 5
 345.0546875 832.198242188 l 5
 345.0546875 284.9453125 l 5
 104.395507812 284.9453125 l 5
 104.395507812 832.198242188 l 5
EndSplineSet
Fore
SplineSet
104.395507812 862.198242188 m 2
 345.0546875 862.198242188 l 2
 353.57365218 862.198242188 360.70339335 858.965562437 366.44391101 852.500202934 c 0
 372.18442867 846.034843432 375.0546875 839.267523183 375.0546875 832.198242188 c 2
 375.0546875 284.9453125 l 2
 375.0546875 276.42634782 371.822007749 269.29660665 365.356648246 263.55608899 c 0
 358.891288744 257.81557133 352.123968495 254.9453125 345.0546875 254.9453125 c 2
 104.395507812 254.9453125 l 2
 95.8765431327 254.9453125 88.746801963 258.177992251 83.0062843028 264.643351754 c 0
 77.2657666426 271.108711256 74.3955078125 277.876031505 74.3955078125 284.9453125 c 2
 74.3955078125 832.198242188 l 2
 74.3955078125 840.717206867 77.6281875637 847.846948037 84.093547066 853.587465697 c 0
 90.5589065683 859.327983358 97.326226817 862.198242188 104.395507812 862.198242188 c 2
134.395507812 802.198242188 m 1
 134.395507812 314.9453125 l 1
 315.0546875 314.9453125 l 1
 315.0546875 802.198242188 l 1
 134.395507812 802.198242188 l 1
EndSplineSet
EndChar

StartChar: by.ccv.1
Encoding: 113 -1 69
Width: 810
VWidth: 230
Flags: W
HStem: 254.945 60<134.396 375.055> 802.198 60<134.396 375.055>
VStem: 74.3955 60<314.945 802.198>
AnchorPoint: "Above" 405 230 basechar 0
LayerCount: 2
Back
SplineSet
345.0546875 832.198242188 m 29
 104.395507812 832.198242188 l 29
 104.395507812 284.9453125 l 29
 345.0546875 284.9453125 l 1053
EndSplineSet
Fore
SplineSet
375.0546875 862.198242188 m 1
 375.0546875 802.198242188 l 1
 134.395507812 802.198242188 l 1
 134.395507812 314.9453125 l 1
 375.0546875 314.9453125 l 1
 375.0546875 254.9453125 l 1
 104.395507812 254.9453125 l 2
 97.3262268168 254.9453125 90.5589065681 257.81557133 84.0935470659 263.55608899 c 0
 77.6281875636 269.29660665 74.3955078125 276.42634782 74.3955078125 284.9453125 c 2
 74.3955078125 832.198242188 l 2
 74.3955078125 839.267523183 77.2657666426 846.034843432 83.0062843028 852.500202934 c 0
 88.746801963 858.965562437 95.8765431327 862.198242188 104.395507812 862.198242188 c 2
 375.0546875 862.198242188 l 1
EndSplineSet
EndChar

StartChar: py.ccv.1
Encoding: 114 -1 70
Width: 810
VWidth: 230
Flags: W
HStem: 254.945 60<74.3955 315.055> 802.198 60<74.3955 315.055>
VStem: 315.055 60<314.945 802.198>
AnchorPoint: "Above" 405 230 basechar 0
LayerCount: 2
Back
SplineSet
104.395507812 832.198242188 m 29
 345.0546875 832.198242188 l 29
 345.0546875 284.9453125 l 29
 104.395507812 284.9453125 l 1053
EndSplineSet
Fore
SplineSet
74.3955078125 802.198242188 m 1
 74.3955078125 862.198242188 l 1
 345.0546875 862.198242188 l 2
 353.57365218 862.198242188 360.70339335 858.965562437 366.44391101 852.500202934 c 0
 372.18442867 846.034843432 375.0546875 839.267523183 375.0546875 832.198242188 c 2
 375.0546875 284.9453125 l 2
 375.0546875 276.42634782 371.822007749 269.29660665 365.356648246 263.55608899 c 0
 358.891288744 257.81557133 352.123968495 254.9453125 345.0546875 254.9453125 c 2
 74.3955078125 254.9453125 l 1
 74.3955078125 314.9453125 l 1
 315.0546875 314.9453125 l 1
 315.0546875 802.198242188 l 1
 74.3955078125 802.198242188 l 1
EndSplineSet
EndChar

StartChar: vy.ccv.1
Encoding: 115 -1 71
Width: 810
VWidth: 230
Flags: W
HStem: 254.945 60<134.396 214.411> 842.198 20G<74.3955 134.396> 842.198 20G<74.3955 134.396>
VStem: 74.3955 60<314.945 862.198>
DStem2: 324.79 840.88 380.705 819.12 0.362669 0.931918<-220.747 30>
AnchorPoint: "Above" 405 230 basechar 0
LayerCount: 2
Back
SplineSet
104.395507812 832.198242188 m 29
 104.395507812 284.9453125 l 29
 240.659179688 284.9453125 l 21
 253.796875 470.443359375 283.966796875 653.26171875 352.747070312 830 c 1037
EndSplineSet
Fore
SplineSet
74.3955078125 862.198242188 m 1xd0
 134.395507812 862.198242188 l 1
 134.395507812 314.9453125 l 1
 212.840010131 314.9453125 l 1
 228.936423099 515.152419043 266.252931164 690.464008833 324.789534325 840.880081872 c 2
 335.669616197 868.837617859 l 1
 391.584688171 847.077454116 l 1
 380.7046063 819.119918128 l 2
 321.913217611 668.049146381 285.206422575 489.284475112 270.584221191 282.825904322 c 0
 270.081570306 275.728711454 266.954943425 269.307647934 261.204340549 263.56271376 c 0
 255.453737673 257.817779587 248.60535072 254.9453125 240.659179688 254.9453125 c 2
 104.395507812 254.9453125 l 2
 97.3262268168 254.9453125 90.5589065681 257.81557133 84.0935470659 263.55608899 c 0
 77.6281875636 269.29660665 74.3955078125 276.42634782 74.3955078125 284.9453125 c 2
 74.3955078125 862.198242188 l 1xd0
EndSplineSet
EndChar

StartChar: fy.ccv.1
Encoding: 116 -1 72
Width: 810
VWidth: 230
Flags: W
HStem: 248.153 21G<62.7506 121.852> 255 21G<315 375> 802 60<235.273 315>
VStem: 315 60<255 802>
DStem2: 58.1525 269.945 114.055 248.153 0.363208 0.931708<3.63214e-11 250.68>
LayerCount: 2
Back
SplineSet
345 285 m 5
 345 832 l 5
 209 832 l 5
 196 647 166 464 97 287 c 1029
EndSplineSet
Fore
SplineSet
375 255 m 1x70
 315 255 l 1x70
 315 802 l 1
 236.83433616 802 l 1
 220.846565894 601.726705536 183.552200524 426.427956828 124.951240052 276.103753878 c 2
 114.05499393 248.152513826 l 1xb0
 58.1525138259 269.94500607 l 1
 69.0487599479 297.896246122 l 2
 127.884908639 448.823757981 164.559920483 627.559316767 179.073795479 834.10292248 c 0
 179.573233831 841.210314415 182.698916127 847.636675319 188.450842366 853.382005191 c 0
 194.202768605 859.127335064 201.052487816 862 209 862 c 2
 345 862 l 2
 352.333333333 862 359.166666667 859.166666667 365.5 853.5 c 0
 371.833333333 847.833333333 375 840.666666667 375 832 c 2
 375 255 l 1x70
EndSplineSet
EndChar

StartChar: ky.ccv.1
Encoding: 117 -1 73
Width: 810
VWidth: 230
Flags: W
HStem: 242.601 21G<84.3758 124.688>
VStem: 62.0737 311.511
DStem2: 62.0514 282.304 107.036 242.601 0.661722 0.749749<3.11922e-10 365.76> 107.373 874.52 62.0737 835.176 0.655732 -0.754994<0 369.067>
AnchorPoint: "Above" 405 230 basechar 0
LayerCount: 2
Back
SplineSet
104.395507812 832.198242188 m 29
 343.956054688 556.374023438 l 29
 104.395507812 284.9453125 l 1053
EndSplineSet
Fore
SplineSet
62.0737361164 835.176100565 m 1
 107.37336619 874.520013883 l 1
 366.605869724 576.045980097 l 2
 371.559317637 569.774045169 373.88555478 562.881095658 373.58458115 555.367131563 c 0
 373.283607521 547.853167468 370.904924913 541.571578093 366.448533326 536.522363439 c 2
 107.036326453 242.601173863 l 1
 62.0513691754 282.304493859 l 1
 304.082771134 556.532751796 l 1
 62.0737361164 835.176100565 l 1
EndSplineSet
EndChar

StartChar: cy.ccv.1
Encoding: 118 -1 74
Width: 810
VWidth: 230
Flags: W
HStem: 242.521 21.11G<83.2658 123.275 324.343 364.323> 528.571 60<73.2969 189.723 259.41 373.956> 842.198 20G<194.176 254.176> 842.198 20G<194.176 254.176>
VStem: 194.176 60<588.571 862.198>
DStem2: 60.873 285.407 102.835 242.521 0.714759 0.699371<5.60972e-11 147.155> 363.569 307.646 324.343 262.244 0.756694 -0.653769<-98.1265 30>
AnchorPoint: "Above" 405 230 basechar 0
LayerCount: 2
Back
SplineSet
343.956054688 558.571289062 m 29
 103.296875 558.571289062 l 1053
103.296875 284.9453125 m 21
 171.430664062 351.612304688 211.72265625 443.186523438 224.17578125 559.669921875 c 1037
343.956054688 284.9453125 m 21
 268.053710938 350.5234375 239.946289062 447.348632812 224.17578125 559.669921875 c 13
 224.17578125 832.198242188 l 1053
EndSplineSet
Fore
SplineSet
386.269949928 288.033073761 m 1xe8
 347.043815949 242.63141726 l 1
 324.342987698 262.244484249 l 2
 279.206151185 301.241818992 245.671947776 354.117016437 223.74037747 420.870076586 c 1
 201.300812023 358.882660032 168.146689819 306.426818812 124.278010859 263.502552928 c 2
 102.835251286 242.521417069 l 1
 60.8729795689 285.406936214 l 1
 82.3157391413 306.388072072 l 2
 138.653090838 361.512582789 174.455509851 435.573655119 189.72299618 528.571289062 c 1
 73.296875 528.571289062 l 1
 73.296875 588.571289062 l 1
 194.17578125 588.571289062 l 1
 194.17578125 862.198242188 l 1
 254.17578125 862.198242188 l 1
 254.17578125 588.571289062 l 1
 373.956054688 588.571289062 l 1
 373.956054688 528.571289062 l 1
 259.409844759 528.571289062 l 1
 277.386811299 425.750484254 312.106570271 352.10876815 363.569121677 307.646140751 c 2
 386.269949928 288.033073761 l 1xe8
EndSplineSet
EndChar

StartChar: yhy.ccv.1
Encoding: 119 -1 75
Width: 810
VWidth: 230
Flags: W
HStem: 255 21G<315 375> 842 20G<74 134> 842 20G<74 134>
VStem: 74 60<261.497 272.904 427.498 862> 315 60<255 689.502 844.096 854.981>
DStem2: 134 427.498 131.454 272.904 0.403187 0.915118<0 312.741>
AnchorPoint: "Above" 405 230 basechar 0
LayerCount: 2
Back
SplineSet
104 832 m 29
 104 285 l 29
 345 832 l 29
 345 285 l 1053
EndSplineSet
Fore
SplineSet
74 862 m 1xd8
 134 862 l 1
 134 427.498431602 l 1
 317.546472773 844.095612544 l 2
 321.659184355 853.430273269 328.400721503 859.042942355 337.771084218 860.933619802 c 0
 347.141446933 862.824297249 355.688856909 860.929502306 363.413314145 855.249234974 c 0
 371.137771382 849.568967642 375 841.819222651 375 832 c 2
 375 255 l 1
 315 255 l 1
 315 689.501568398 l 1
 131.453527227 272.904387456 l 2
 127.579642787 264.111794973 120.966610093 258.616882112 111.614429146 256.419648873 c 0
 102.262248199 254.222415633 93.6551314383 255.8296295 85.793078863 261.241290473 c 0
 77.9310262877 266.652951446 74 274.572521288 74 285 c 2
 74 862 l 1xd8
EndSplineSet
EndChar

StartChar: uy.ccv.1
Encoding: 120 -1 76
Width: 810
VWidth: 230
Flags: W
HStem: 254.945 60<74.3955 315.055> 842.198 20G<315.055 375.055> 842.198 20G<315.055 375.055>
VStem: 315.055 60<314.945 862.198>
AnchorPoint: "Above" 405 230 basechar 0
LayerCount: 2
Back
SplineSet
345.0546875 832.198242188 m 29
 345.0546875 284.9453125 l 29
 104.395507812 284.9453125 l 1053
EndSplineSet
Fore
SplineSet
315.0546875 862.198242188 m 1xd0
 375.0546875 862.198242188 l 1
 375.0546875 284.9453125 l 2
 375.0546875 276.42634782 371.822007749 269.29660665 365.356648246 263.55608899 c 0
 358.891288744 257.81557133 352.123968495 254.9453125 345.0546875 254.9453125 c 2
 74.3955078125 254.9453125 l 1
 74.3955078125 314.9453125 l 1
 315.0546875 314.9453125 l 1
 315.0546875 862.198242188 l 1xd0
EndSplineSet
EndChar

StartChar: ly.ccv.1
Encoding: 121 -1 77
Width: 810
VWidth: 230
Flags: W
HStem: 254.945 60<134.396 373.956> 528.571 60<134.396 313.956> 802.198 60<74.3955 313.956>
VStem: 74.3955 60<314.945 528.571> 313.956 60<588.571 802.198>
CounterMasks: 1 e0
AnchorPoint: "Above" 405 230 basechar 0
LayerCount: 2
Back
SplineSet
104.395507812 832.198242188 m 29
 343.956054688 832.198242188 l 29
 343.956054688 558.571289062 l 29
 104.395507812 558.571289062 l 29
 104.395507812 284.9453125 l 29
 343.956054688 284.9453125 l 1053
EndSplineSet
Fore
SplineSet
74.3955078125 802.198242188 m 1
 74.3955078125 862.198242188 l 1
 343.956054688 862.198242188 l 2
 352.475019367 862.198242188 359.604760537 858.965562437 365.345278197 852.500202934 c 0
 371.085795858 846.034843432 373.956054688 839.267523183 373.956054688 832.198242188 c 2
 373.956054688 558.571289062 l 2
 373.956054688 550.052324383 370.723374937 542.922583213 364.258015434 537.182065553 c 0
 357.792655932 531.441547892 351.025335683 528.571289062 343.956054688 528.571289062 c 2
 134.395507812 528.571289062 l 1
 134.395507812 314.9453125 l 1
 373.956054688 314.9453125 l 1
 373.956054688 254.9453125 l 1
 104.395507812 254.9453125 l 2
 97.3262268168 254.9453125 90.5589065681 257.81557133 84.0935470659 263.55608899 c 0
 77.6281875636 269.29660665 74.3955078125 276.42634782 74.3955078125 284.9453125 c 2
 74.3955078125 558.571289062 l 2
 74.3955078125 565.640570058 77.2657666426 572.407890307 83.0062843027 578.873249809 c 0
 88.7468019629 585.338609311 95.8765431326 588.571289062 104.395507812 588.571289062 c 2
 313.956054688 588.571289062 l 1
 313.956054688 802.198242188 l 1
 74.3955078125 802.198242188 l 1
EndSplineSet
EndChar

StartChar: denpabu.cvc.1
Encoding: 63 -1 78
Width: 810
VWidth: 230
Flags: W
HStem: 445.055 60<296.708 514.281> 807.692 60<296.708 514.281>
VStem: 135.934 60<590.612 722.136> 615.055 60<590.612 722.136>
AnchorPoint: "Above" 405 230 basechar 0
LayerCount: 2
Back
SplineSet
165.93359375 656.374023438 m 0
 165.93359375 756.374023438 273.625976562 837.692382812 405.494140625 837.692382812 c 0
 537.362304688 837.692382812 645.0546875 756.374023438 645.0546875 656.374023438 c 0
 645.0546875 556.374023438 537.362304688 475.0546875 405.494140625 475.0546875 c 0
 273.625976562 475.0546875 165.93359375 556.374023438 165.93359375 656.374023438 c 0
EndSplineSet
Fore
SplineSet
135.93359375 656.374023438 m 0
 135.93359375 696.385295638 148.581465092 732.733360464 173.877207777 765.418217916 c 0
 199.172950462 798.103075368 232.332760411 823.31998388 273.356637626 841.068943453 c 0
 314.380514841 858.817903026 358.426349174 867.692382812 405.494140625 867.692382812 c 0
 452.562325966 867.692382812 496.608335515 858.817954667 537.632169271 841.069098378 c 0
 578.656003027 823.320242089 611.815714505 798.103401978 637.111303703 765.418578044 c 0
 662.406892901 732.73375411 675.0546875 696.385569242 675.0546875 656.374023438 c 0
 675.0546875 616.362768338 662.406838208 580.014639612 637.111139624 547.32963726 c 0
 611.815441041 514.644634907 578.655633189 489.427559359 537.631716069 471.678410616 c 0
 496.607798949 453.929261872 452.561940468 445.0546875 405.494140625 445.0546875 c 0
 358.425946904 445.0546875 314.379913211 453.929210234 273.356039546 471.678255702 c 0
 232.332165881 489.42730117 199.172456499 514.644308321 173.876911399 547.329277156 c 0
 148.5813663 580.014245991 135.93359375 616.362494751 135.93359375 656.374023438 c 0
195.93359375 656.374023438 m 0
 195.93359375 616.771754272 216.019689023 581.651297658 256.191879568 551.012653595 c 0
 296.364070113 520.374009532 346.131490465 505.0546875 405.494140625 505.0546875 c 0
 464.857344207 505.0546875 514.624902915 520.373910252 554.796816749 551.012355757 c 0
 594.968730583 581.650801262 615.0546875 616.771357155 615.0546875 656.374023438 c 0
 615.0546875 695.976191286 594.968625379 731.09645981 554.796501136 761.734829011 c 0
 514.624376894 792.373198212 464.85692339 807.692382812 405.494140625 807.692382812 c 0
 346.13080442 807.692382812 296.363212556 792.373297496 256.191365034 761.735126865 c 0
 216.019517511 731.096956234 195.93359375 695.976588425 195.93359375 656.374023438 c 0
EndSplineSet
EndChar

StartChar: ybu.cv
Encoding: 47 -1 79
Width: -30
VWidth: 230
Flags: W
HStem: -46 21G<345 405> 106 60<72 345 405 679>
VStem: 345 60<-46 106>
AnchorPoint: "Above" 375 230 mark 0
LayerCount: 2
Back
SplineSet
375 136 m 5
 375 -16 l 1029
649 136 m 5
 102 136 l 1029
EndSplineSet
Fore
SplineSet
679 166 m 1
 679 106 l 1
 405 106 l 1
 405 -46 l 1
 345 -46 l 1
 345 106 l 1
 72 106 l 1
 72 166 l 1
 679 166 l 1
EndSplineSet
Substitution2: "Single Substitution lookup 73 subtable" ybu.cvc
Substitution2: "Single Substitution lookup 69 subtable" ybu.ccv
EndChar

StartChar: eibu.cv
Encoding: 58 -1 80
Width: -30
VWidth: 230
Flags: W
HStem: -143 21G<72 132> 106 60<132 345 405 679> 274 20G<345 405>
VStem: 72 60<-143 106> 345 60<167 294>
AnchorPoint: "Above" 375 230 mark 0
LayerCount: 2
Back
SplineSet
375 264 m 5
 375 136 l 1029
649 136 m 5
 102 137 l 5
 102 -113 l 1029
EndSplineSet
Fore
SplineSet
679 166 m 1
 679 106 l 1
 132 106 l 1
 132 -143 l 1
 72 -143 l 1
 72 137 l 2
 72 144.333333333 74.8333333333 151.166666667 80.5 157.5 c 0
 86.1666666667 163.833333333 93.3333333333 167 102 167 c 2
 345 167 l 1
 345 294 l 1
 405 294 l 1
 405 166 l 1
 679 166 l 1
EndSplineSet
Substitution2: "Single Substitution lookup 73 subtable" eibu.cvc
Substitution2: "Single Substitution lookup 69 subtable" eibu.ccv
EndChar

StartChar: oibu.cv
Encoding: 59 -1 81
Width: -30
VWidth: 230
Flags: W
HStem: -143 21G<619 679> 106 60<72 345 405 619> 274 20G<345 405>
VStem: 345 60<166 294> 619 60<-143 106>
AnchorPoint: "Above" 375 230 mark 0
LayerCount: 2
Back
SplineSet
102 136 m 1053,1,-1
375 264 m 5,3,-1
 375 136 l 1053
102 136 m 5,5,-1
 649 136 l 5,6,-1
 649 -113 l 1053
EndSplineSet
Fore
SplineSet
345 294 m 1
 405 294 l 1
 405 166 l 1
 649 166 l 2
 657.666666667 166 664.833333333 162.833333333 670.5 156.5 c 0
 676.166666667 150.166666667 679 143.333333333 679 136 c 2
 679 -143 l 1
 619 -143 l 1
 619 106 l 1
 72 106 l 1
 72 166 l 1
 345 166 l 1
 345 294 l 1
EndSplineSet
Substitution2: "Single Substitution lookup 73 subtable" oibu.cvc
Substitution2: "Single Substitution lookup 69 subtable" oibu.ccv
EndChar

StartChar: aibu.cv
Encoding: 60 -1 82
Width: -30
VWidth: 230
Flags: W
HStem: 106 60<72 345 405 679> 273 20G<345 405>
VStem: 345 60<166 293>
AnchorPoint: "Above" 375 230 mark 0
LayerCount: 2
Back
SplineSet
375 263 m 1
 375 136 l 1049
102 136 m 13
 649 136 l 1049
EndSplineSet
Fore
SplineSet
72 106 m 1
 72 166 l 1
 345 166 l 1
 345 293 l 1
 405 293 l 1
 405 166 l 1
 679 166 l 1
 679 106 l 1
 72 106 l 1
EndSplineSet
Substitution2: "Single Substitution lookup 73 subtable" aibu.cvc
Substitution2: "Single Substitution lookup 69 subtable" aibu.ccv
EndChar

StartChar: aubu.cv
Encoding: 61 -1 83
Width: -30
VWidth: 230
Flags: W
HStem: -143 21G<72 132 619 679> 107 59<132 619>
VStem: 72 60<-143 107> 619 60<-143 107>
AnchorPoint: "Above" 375 230 mark 0
LayerCount: 2
Back
SplineSet
649 -112.857421875 m 25
 649 136.59375 l 1
 102 136 l 9
 102 -113 l 1025
EndSplineSet
Fore
SplineSet
679 -143 m 1
 619 -143 l 1
 619 107 l 1
 132 107 l 1
 132 -143 l 1
 72 -143 l 1
 72 136 l 2
 72 144 75 151 81 157 c 0
 87 163 94 166 102 166 c 2
 649 166 l 2
 656.333333333 166 663.166666667 163.333333333 669.5 158 c 0
 675.833333333 152.666666667 679 145.666666667 679 137 c 2
 679 -143 l 1
EndSplineSet
Substitution2: "Single Substitution lookup 73 subtable" aubu.cvc
Substitution2: "Single Substitution lookup 69 subtable" aubu.ccv
EndChar

StartChar: ubu.cv
Encoding: 45 -1 84
Width: -30
VWidth: 230
Flags: W
HStem: -122 76G<345 405 619 679> 106 60<72 345 405 619>
VStem: 345 60<-46 106> 619 60<-143 106>
AnchorPoint: "Above" 375 230 mark 0
LayerCount: 2
Back
SplineSet
375 136 m 25
 375 -16 l 1025
102 136 m 1
 649 136 l 1
 649 -113 l 1049
EndSplineSet
Fore
SplineSet
72 106 m 1
 72 166 l 1
 649 166 l 2
 657.666666667 166 664.833333333 162.833333333 670.5 156.5 c 0
 676.166666667 150.166666667 679 143.333333333 679 136 c 2
 679 -143 l 1
 619 -143 l 1
 619 106 l 1
 405 106 l 1
 405 -46 l 1
 345 -46 l 1
 345 106 l 1
 72 106 l 1
EndSplineSet
Substitution2: "Single Substitution lookup 73 subtable" ubu.cvc
Substitution2: "Single Substitution lookup 69 subtable" ubu.ccv
EndChar

StartChar: abu.cv
Encoding: 46 -1 85
Width: -30
VWidth: 230
Flags: W
HStem: 106 60<72 679>
AnchorPoint: "Above" 375 230 mark 0
LayerCount: 2
Back
SplineSet
102 136 m 1
 649 136 l 1029
EndSplineSet
Fore
SplineSet
72 106 m 1
 72 166 l 1
 679 166 l 1
 679 106 l 1
 72 106 l 1
EndSplineSet
Substitution2: "Single Substitution lookup 73 subtable" abu.cvc
Substitution2: "Single Substitution lookup 69 subtable" abu.ccv
EndChar

StartChar: eibu.ccv
Encoding: 122 -1 104
Width: 0
VWidth: 230
Flags: W
HStem: -143 21G<74 134> 106 60<134 375 435 738> 247 20G<375 435>
VStem: 74 60<-143 106> 375 60<166 267>
AnchorPoint: "Above" 405 230 mark 0
LayerCount: 2
Back
SplineSet
405 237 m 5
 405 136 l 1029
104 -113 m 29
 104 136 l 29
 708 136 l 1053
EndSplineSet
Fore
SplineSet
134 -143 m 1
 74 -143 l 1
 74 136 l 2
 74 144.666666667 77.1666666667 151.833333333 83.5 157.5 c 0
 89.8333333333 163.166666667 96.6666666667 166 104 166 c 2
 375 166 l 1
 375 267 l 1
 435 267 l 1
 435 166 l 1
 738 166 l 1
 738 106 l 1
 134 106 l 1
 134 -143 l 1
EndSplineSet
EndChar

StartChar: obu.ccv
Encoding: 107 -1 105
Width: 0
VWidth: 230
Flags: W
HStem: -122 76G<375 435 678 738> 106 60<74 375 435 678>
VStem: 375 60<-46 106> 678 60<-143 106>
AnchorPoint: "Above" 405 230 mark 0
LayerCount: 2
Back
SplineSet
405 136 m 25
 405 -16 l 1025
708 -113 m 25
 708 136 l 1
 104 136 l 1025
EndSplineSet
Fore
SplineSet
738 -143 m 1
 678 -143 l 1
 678 106 l 1
 435 106 l 1
 435 -46 l 1
 375 -46 l 1
 375 106 l 1
 74 106 l 1
 74 166 l 1
 708 166 l 2
 715.333333333 166 722.166666667 163.166666667 728.5 157.5 c 0
 734.833333333 151.833333333 738 144.666666667 738 136 c 2
 738 -143 l 1
EndSplineSet
EndChar

StartChar: oibu.ccv
Encoding: 123 -1 106
Width: 0
VWidth: 230
Flags: W
HStem: -143 21G<678 738> 106 60<74 375 435 678> 247 20G<375 435>
VStem: 375 60<166 267> 678 60<-143 106>
AnchorPoint: "Above" 406 230 mark 0
LayerCount: 2
Back
SplineSet
405 237 m 5
 405 136 l 1029
104 136 m 29
 708 136 l 29
 708 -113 l 1053
EndSplineSet
Fore
SplineSet
74 106 m 1
 74 166 l 1
 375 166 l 1
 375 267 l 1
 435 267 l 1
 435 166 l 1
 708 166 l 2
 716.666666667 166 723.833333333 162.833333333 729.5 156.5 c 0
 735.166666667 150.166666667 738 143.333333333 738 136 c 2
 738 -143 l 1
 678 -143 l 1
 678 106 l 1
 74 106 l 1
EndSplineSet
EndChar

StartChar: ybu.ccv
Encoding: 111 -1 107
Width: 0
VWidth: 230
Flags: W
HStem: -46 21G<375 435> 106 60<74 375 435 738>
VStem: 375 60<-46 106>
AnchorPoint: "Above" 405 230 mark 0
LayerCount: 2
Back
SplineSet
405 136 m 29
 405 -16 l 1029
104 136 m 29
 708 136 l 1053
EndSplineSet
Fore
SplineSet
74 106 m 1
 74 166 l 1
 738 166 l 1
 738 106 l 1
 435 106 l 1
 435 -46 l 1
 375 -46 l 1
 375 106 l 1
 74 106 l 1
EndSplineSet
EndChar

StartChar: ebu.cvc
Encoding: 74 -1 108
Width: 0
VWidth: 230
Flags: W
HStem: 32.0055 21G<25.0055 84.9508> 330.014 59.6558<84.9508 785.986>
VStem: 25.0055 59.9453<32.0055 330.014>
AnchorPoint: "Above" 405 230 mark 0
LayerCount: 2
Back
SplineSet
756 360 m 5
 54.9453125 359.669921875 l 5
 55 62 l 1029
EndSplineSet
Fore
SplineSet
785.985871753 360.014124922 m 1
 785.999996675 330.014128247 l 1
 84.9508219693 330.014128247 l 1
 84.9508219693 32.0055120641 l 1
 25.0055120641 32.0055120641 l 1
 25.0055120641 359.664410317 l 2
 25.0040887047 367.411907895 27.9179950002 374.348724132 33.7472309506 380.474859026 c 0
 39.576466901 386.60099392 46.6377857769 389.666013761 54.9311875782 389.66991855 c 2
 785.985871753 389.66991855 l 1
 785.985871753 360.014124922 l 1
EndSplineSet
EndChar

StartChar: obu.cvc
Encoding: 75 -1 109
Width: 0
VWidth: 230
Flags: W
HStem: 32.1008 21G<726 785> 330 60<25 726>
VStem: 726 58.9997<32.1008 330>
AnchorPoint: "Above" 405 229 mark 0
LayerCount: 2
Back
SplineSet
55 360 m 29
 755 360 l 5
 756 62 l 1053
EndSplineSet
Fore
SplineSet
25 330 m 1
 25 390 l 1
 755 390 l 2
 763.291875228 390 770.358370565 386.93748341 776.19948601 380.81245023 c 0
 782.040601455 374.687417049 784.974049815 367.783490498 784.99983109 360.100670574 c 2
 784.99983109 32.100839484 l 1
 726.00016891 32.100839484 l 1
 726.00016891 330 l 1
 25 330 l 1
EndSplineSet
EndChar

StartChar: ibu.cvc
Encoding: 76 -1 110
Width: 0
VWidth: 230
Flags: W
HStem: 207 21G<25.0002 84.1008 375 435> 330 60<84.1008 375 435 788>
VStem: 25.0002 59.1007<32.1008 330> 375 60<207 330>
AnchorPoint: "Above" 405 230 mark 0
LayerCount: 2
Back
SplineSet
405 237 m 29
 405 360 l 1053
758 360 m 29
 54 360 l 29
 55 62 l 1053
EndSplineSet
Fore
SplineSet
788 390 m 1
 788 330 l 1
 435 330 l 1
 435 207 l 1
 375 207 l 1
 375 330 l 1
 84.1008400518 330 l 1
 84.1008400518 32.100839484 l 1
 25.0001689099 32.100839484 l 1
 25.0001689099 359.899329426 l 2
 24.9759430266 367.118642658 27.6836824452 373.940249395 33.1233871656 380.364149637 c 0
 38.5630918861 386.788049879 45.5219628309 390 54 390 c 2
 788 390 l 1
EndSplineSet
EndChar

StartChar: ubu.cvc
Encoding: 77 -1 111
Width: 0
VWidth: 230
Flags: W
HStem: 31.8995 21G<375 435 725.899 787> 330 60<26 375 435 725.899>
VStem: 375 60<207 330> 725.899 61.1003<31.8995 330>
AnchorPoint: "Above" 405 230 mark 0
LayerCount: 2
Back
SplineSet
405 237 m 29
 405 360 l 1053
56 360 m 29
 757 360 l 29
 756 62 l 1053
EndSplineSet
Fore
SplineSet
26 330 m 1
 26 390 l 1
 757 390 l 2
 765.524219701 390 772.661232092 386.766935539 778.411037173 380.300806617 c 0
 784.160842254 373.834677694 787.023773559 367.034185297 786.99983109 359.899329426 c 2
 786.99983109 31.8994983358 l 1
 725.899498336 31.8994983358 l 1
 725.899498336 330 l 1
 435 330 l 1
 435 207 l 1
 375 207 l 1
 375 330 l 1
 26 330 l 1
EndSplineSet
EndChar

StartChar: abu.cvc
Encoding: 78 -1 112
Width: 0
VWidth: 230
Flags: W
HStem: 330 60<25 785>
AnchorPoint: "Above" 405 230 mark 0
LayerCount: 2
Back
SplineSet
55 360 m 29
 755 360 l 1053
EndSplineSet
Fore
SplineSet
25 330 m 1
 25 390 l 1
 785 390 l 1
 785 330 l 1
 25 330 l 1
EndSplineSet
EndChar

StartChar: ybu.cvc
Encoding: 79 -1 113
Width: 0
VWidth: 230
Flags: W
HStem: 207 21G<375 435> 330 60<26 375 435 787>
VStem: 375 60<207 330>
AnchorPoint: "Above" 405 230 mark 0
LayerCount: 2
Back
SplineSet
405 360 m 29
 405 237 l 1029
56 360 m 29
 757 360 l 1053
EndSplineSet
Fore
SplineSet
26 330 m 1
 26 390 l 1
 787 390 l 1
 787 330 l 1
 435 330 l 1
 435 207 l 1
 375 207 l 1
 375 330 l 1
 26 330 l 1
EndSplineSet
EndChar

StartChar: eibu.cvc
Encoding: 90 -1 114
Width: 0
VWidth: 230
Flags: W
HStem: 32 21G<25 85> 330 60<85 375 435 785> 493 20G<375 435> 493 20G<375 435>
VStem: 25 60<32 330> 375 60<390 513>
AnchorPoint: "Above" 405 230 mark 0
LayerCount: 2
Back
SplineSet
405 360 m 5
 405 483 l 1029
55 62 m 29
 55 360 l 29
 755 360 l 1053
EndSplineSet
Fore
SplineSet
85 32 m 1xec
 25 32 l 1
 25 360 l 2
 25 368.666666667 28.1666666667 375.833333333 34.5 381.5 c 0
 40.8333333333 387.166666667 47.6666666667 390 55 390 c 2
 375 390 l 1
 375 513 l 1
 435 513 l 1
 435 390 l 1
 785 390 l 1
 785 330 l 1
 85 330 l 1
 85 32 l 1xec
EndSplineSet
EndChar

StartChar: oibu.cvc
Encoding: 91 -1 115
Width: 0
VWidth: 230
Flags: W
HStem: 32 21G<726 786> 330 60<25 375 435 726> 493 20G<375 435> 493 20G<375 435>
VStem: 375 60<390 513> 726 60<32 330>
AnchorPoint: "Above" 405 230 mark 0
LayerCount: 2
Back
SplineSet
405 360 m 5
 405 483 l 1029
756 62 m 29
 756 360 l 5
 55 360 l 1053
EndSplineSet
Fore
SplineSet
786 32 m 1xec
 726 32 l 1
 726 330 l 1
 25 330 l 1
 25 390 l 1
 375 390 l 1
 375 513 l 1
 435 513 l 1
 435 390 l 1
 756 390 l 2
 763.333333333 390 770.166666667 387.166666667 776.5 381.5 c 0
 782.833333333 375.833333333 786 368.666666667 786 360 c 2
 786 32 l 1xec
EndSplineSet
EndChar

StartChar: aibu.cvc
Encoding: 92 -1 116
Width: 0
VWidth: 230
Flags: W
HStem: 330 60<25 375 435 787> 493 20G<375 435> 493 20G<375 435>
VStem: 375 60<390 513>
AnchorPoint: "Above" 405 230 mark 0
LayerCount: 2
Back
SplineSet
405 483 m 5
 405 360 l 1053
55 360 m 29
 757 360 l 1053
EndSplineSet
Fore
SplineSet
25 330 m 1xd0
 25 390 l 1
 375 390 l 1
 375 513 l 1
 435 513 l 1
 435 390 l 1
 787 390 l 1
 787 330 l 1
 25 330 l 1xd0
EndSplineSet
EndChar

StartChar: aubu.cvc
Encoding: 93 -1 117
Width: 0
VWidth: 230
Flags: W
HStem: 32 21G<25 85 726 756.101> 330 60<85 726>
VStem: 25 60<32 330> 726 58.9997<32.1008 330>
AnchorPoint: "Above" 405 230 mark 0
LayerCount: 2
Back
SplineSet
756 62 m 25
 755 360 l 25
 55 360 l 25
 55 62 l 1049
EndSplineSet
Fore
SplineSet
756.100670574 32.100839484 m 1
 726.00016891 32.0001689099 l 1
 726.00016891 330 l 1
 85 330 l 1
 85 32 l 1
 25 32 l 1
 25 360 l 2
 25 367.333333333 27.8333333333 374.166666667 33.5 380.5 c 0
 39.1666666667 386.833333333 46.3333333333 390 55 390 c 2
 755 390 l 2
 762.682863181 390 769.596594592 387.089735565 775.741194234 381.269206694 c 0
 781.885793877 375.448677823 784.972006162 368.392499117 784.99983109 360.100670574 c 2
 784.99983109 32.100839484 l 1
 756.100670574 32.100839484 l 1
EndSplineSet
EndChar

StartChar: ibu.ccv
Encoding: 108 -1 119
Width: 0
VWidth: 230
Flags: W
HStem: -143 21G<74 134> 106 60<134 738>
VStem: 74 60<-143 106>
AnchorPoint: "Above" 405 230 mark 0
LayerCount: 2
Back
SplineSet
708 136 m 29
 104 136 l 29
 104 -113 l 1053
EndSplineSet
Fore
SplineSet
738 166 m 1
 738 106 l 1
 134 106 l 1
 134 -143 l 1
 74 -143 l 1
 74 136 l 2
 74 143.333333333 76.8333333333 150.166666667 82.5 156.5 c 0
 88.1666666667 162.833333333 95.3333333333 166 104 166 c 2
 738 166 l 1
EndSplineSet
EndChar

StartChar: ubu.ccv
Encoding: 109 -1 120
Width: 0
VWidth: 230
Flags: W
HStem: -143 21G<678 738> 106 60<74 678>
VStem: 678 60<-143 106>
AnchorPoint: "Above" 405 230 mark 0
LayerCount: 2
Back
SplineSet
104 136 m 29
 708 136 l 29
 708 -113 l 1053
EndSplineSet
Fore
SplineSet
74 106 m 1
 74 166 l 1
 708 166 l 2
 716.666666667 166 723.833333333 162.833333333 729.5 156.5 c 0
 735.166666667 150.166666667 738 143.333333333 738 136 c 2
 738 -143 l 1
 678 -143 l 1
 678 106 l 1
 74 106 l 1
EndSplineSet
EndChar

StartChar: abu.ccv
Encoding: 110 -1 121
Width: 0
VWidth: 230
Flags: W
HStem: 106 60<74 738>
AnchorPoint: "Above" 405 230 mark 0
LayerCount: 2
Back
SplineSet
104 136 m 29
 708 136 l 1053
EndSplineSet
Fore
SplineSet
74 106 m 1
 74 166 l 1
 738 166 l 1
 738 106 l 1
 74 106 l 1
EndSplineSet
EndChar

StartChar: aibu.ccv
Encoding: 124 -1 122
Width: 0
VWidth: 230
Flags: W
HStem: 106 60<74 375 435 738> 247 20G<375 435>
VStem: 375 60<166 267>
AnchorPoint: "Above" 405 230 mark 0
LayerCount: 2
Back
SplineSet
405 237 m 29
 405 135 l 1053
708 136 m 29
 104 136 l 1053
EndSplineSet
Fore
SplineSet
738 166 m 1
 738 106 l 1
 74 106 l 1
 74 166 l 1
 375 166 l 1
 375 267 l 1
 435 267 l 1
 435 166 l 1
 738 166 l 1
EndSplineSet
EndChar

StartChar: aubu.ccv
Encoding: 125 -1 123
Width: 0
VWidth: 230
Flags: W
HStem: -143 21G<74 134 678 738> 106 60<134 678>
VStem: 74 60<-143 106> 678 60<-143 106>
AnchorPoint: "Above" 405 230 mark 0
LayerCount: 2
Back
SplineSet
708 -113 m 29
 708 136 l 29
 104 136 l 29
 104 -113 l 1053
EndSplineSet
Fore
SplineSet
738 -143 m 1
 678 -143 l 1
 678 106 l 1
 134 106 l 1
 134 -143 l 1
 74 -143 l 1
 74 136 l 2
 74 143.333333333 76.8333333333 150.166666667 82.5 156.5 c 0
 88.1666666667 162.833333333 95.3333333333 166 104 166 c 2
 708 166 l 2
 715.333333333 166 722.166666667 163.166666667 728.5 157.5 c 0
 734.833333333 151.833333333 738 144.666666667 738 136 c 2
 738 -143 l 1
EndSplineSet
EndChar

StartChar: denpabu.ccv.1
Encoding: 127 -1 143
Width: 810
VWidth: 230
Flags: W
HStem: 255 60<193.851 254.149> 801 60<193.851 254.149>
VStem: 74 60<407.647 708.353> 314 60<407.647 708.353>
AnchorPoint: "Above" 405 230 basechar 0
LayerCount: 2
Back
SplineSet
104 558 m 4
 104 709 158 831 224 831 c 4
 290 831 344 709 344 558 c 4
 344 407 290 285 224 285 c 4
 158 285 104 407 104 558 c 4
EndSplineSet
Fore
SplineSet
74 558 m 0
 74 639.333333333 87.1666666667 710.166666667 113.5 770.5 c 0
 139.833333333 830.833333333 176.666666667 861 224 861 c 0
 271.333333333 861 308.166666667 830.833333333 334.5 770.5 c 0
 360.833333333 710.166666667 374 639.333333333 374 558 c 0
 374 476.666666667 360.833333333 405.833333333 334.5 345.5 c 0
 308.166666667 285.166666667 271.333333333 255 224 255 c 0
 176.666666667 255 139.833333333 285.166666667 113.5 345.5 c 0
 87.1666666667 405.833333333 74 476.666666667 74 558 c 0
134 558 m 0
 134 521.333333333 137.166666667 487 143.5 455 c 0
 149.833333333 423 157.833333333 397.333333333 167.5 378 c 0
 177.166666667 358.666666667 187 343.333333333 197 332 c 0
 207 320.666666667 216 315 224 315 c 0
 232 315 241 320.666666667 251 332 c 0
 261 343.333333333 270.833333333 358.666666667 280.5 378 c 0
 290.166666667 397.333333333 298.166666667 423 304.5 455 c 0
 310.833333333 487 314 521.333333333 314 558 c 0
 314 594.666666667 310.833333333 629 304.5 661 c 0
 298.166666667 693 290.166666667 718.666666667 280.5 738 c 0
 270.833333333 757.333333333 261 772.666666667 251 784 c 0
 241 795.333333333 232 801 224 801 c 0
 216 801 207 795.333333333 197 784 c 0
 187 772.666666667 177.166666667 757.333333333 167.5 738 c 0
 157.833333333 718.666666667 149.833333333 693 143.5 661 c 0
 137.166666667 629 134 594.666666667 134 558 c 0
EndSplineSet
EndChar

StartChar: guillemotleft
Encoding: 160 171 145
Width: 800
VWidth: 230
Flags: W
HStem: 174.862 21G<384.627 425.743 565.627 606.743> 525.138 20G<384.627 425.743 565.627 606.743> 525.138 20G<384.627 425.743 565.627 606.743>
DStem2: 272.393 360 201.769 339.331 0.784661 -0.619925<0 222.701> 205.402 383.54 272.393 360 0.784661 0.619925<37.972 260.673> 453.393 360 382.769 339.331 0.784661 -0.619925<0 222.701> 386.402 383.54 453.393 360 0.784661 0.619925<37.972 260.673>
CounterMasks: 1 e0
LayerCount: 2
Back
SplineSet
586 503 m 5
 405 360 l 5
 586 217 l 1029
405 503 m 5
 224 360 l 5
 405 217 l 1029
EndSplineSet
Fore
SplineSet
409.942062369 545.137584406 m 1xc0
 447.137584406 498.057937631 l 1
 272.392922089 360 l 1
 447.137584406 221.942062369 l 1
 409.942062369 174.862415594 l 1
 201.769010942 339.330627495 l 2
 195.922400802 345.666106955 193.371686347 353.279348568 194.116867575 362.170352335 c 0
 194.862048803 371.061356102 198.623839271 378.184513119 205.402238981 383.539823387 c 2
 409.942062369 545.137584406 l 1xc0
590.942062369 545.137584406 m 1
 628.137584406 498.057937631 l 1
 453.392922089 360 l 1
 628.137584406 221.942062369 l 1
 590.942062369 174.862415594 l 1
 382.769010942 339.330627495 l 2
 376.922400802 345.666106955 374.371686347 353.279348568 375.116867575 362.170352335 c 0
 375.862048803 371.061356102 379.623839271 378.184513119 386.402238981 383.539823387 c 2
 590.942062369 545.137584406 l 1
EndSplineSet
EndChar

StartChar: parenleft
Encoding: 162 40 148
Width: 500
VWidth: 230
Flags: W
VStem: 74 60<221.923 496.208>
DStem2: 377.671 -77.0041 344.463 -127.283 0.837966 -0.545723<-132.275 48.8063> 343.877 845.868 377.408 795.811 0.837682 0.546158<-131.638 49.88>
LayerCount: 2
Back
SplineSet
377 832 m 25
 377 832 104.002929688 658.009765625 104 359 c 0
 103.997070312 61.0087890625 377 -113 377 -113 c 1049
EndSplineSet
Fore
SplineSet
386.148026892 873.428415417 m 1
 418.428415417 822.851973108 l 1
 393.149589168 806.717775139 l 2
 389.549145732 804.406494006 384.30186448 800.770768399 377.407745412 795.810598317 c 0
 370.513626344 790.850428234 358.254930409 780.789897363 340.631657608 765.629005703 c 0
 323.008384807 750.468114043 305.935568531 734.284758257 289.41320878 717.078938346 c 0
 272.89084903 699.873118434 254.842649513 677.913546724 235.268610229 651.200223215 c 0
 215.694570946 624.486899706 198.758853012 597.050117178 184.461456428 568.88987563 c 0
 170.164059844 540.729634082 158.179560593 508.162249726 148.507958676 471.187722561 c 0
 138.836356759 434.213195396 134.000370533 396.817189561 133.999999999 358.999705056 c 0
 133.999629009 321.264733004 138.851293511 283.937915926 148.554993506 247.019253821 c 0
 158.2586935 210.100591717 170.274718786 177.584371274 184.603069365 149.470592494 c 0
 198.931419943 121.356813713 215.909566604 93.9544748859 235.537509346 67.2635760113 c 0
 255.165452089 40.5726771367 273.240672523 18.6465697689 289.763170648 1.485253908 c 0
 306.285668773 -15.6760619529 323.36657745 -31.8265905394 341.005896679 -46.9663318514 c 0
 358.645215908 -62.1060731633 370.866765227 -72.1186731237 377.670544637 -77.0041317323 c 0
 384.474324046 -81.889590341 389.634274597 -85.4609766959 393.150396291 -87.7182907972 c 2
 418.428757854 -103.853524029 l 1
 386.146475971 -154.428757854 l 1
 361.701779622 -138.825654944 l 2
 356.891046183 -135.754953313 351.144909047 -131.907322213 344.463368215 -127.282761644 c 0
 337.781827383 -122.658201076 324.30003494 -111.877212221 304.017990887 -94.939795079 c 0
 283.735946835 -78.0023779369 264.694028338 -60.3302668238 246.892235398 -41.9234617398 c 0
 229.090442459 -23.5166566557 209.09468941 0.598491626229 186.904976253 30.4219831059 c 0
 164.715263095 60.2454745856 145.779153931 90.7884811784 130.096648759 122.051002884 c 0
 114.414143588 153.31352459 101.143969809 189.836304404 90.2861274226 231.619342328 c 0
 79.4282850364 273.402380251 73.999575896 315.86269779 74.0000000014 359.000294944 c 0
 74.0004230118 402.17357783 79.4180171255 444.673881015 90.2527823425 486.5012045 c 0
 101.08754756 528.328527984 114.355969194 564.909463536 130.058047246 596.244011153 c 0
 145.760125298 627.578558771 164.655919895 658.158849853 186.745431036 687.984884399 c 0
 208.834942178 717.810918945 228.80525423 741.971572676 246.656367192 760.466845591 c 0
 264.507480154 778.962118506 283.4841485 796.644372453 303.586372228 813.513607432 c 0
 323.688595956 830.382842411 337.118765087 841.167703693 343.876879622 845.868191277 c 0
 350.634994157 850.568678861 356.295209516 854.374870641 360.8575257 857.286766619 c 2
 386.148026892 873.428415417 l 1
EndSplineSet
EndChar

StartChar: denpabu_iy
Encoding: 174 -1 149
Width: 810
VWidth: 2427
Flags: W
HStem: 255.524 59.4512<161.868 710.19> 456 60<394.39 541.61> 800 60<394.39 541.61>
VStem: 101.868 60<314.975 857.802> 270 60<580.828 735.172> 606 60<580.828 735.172>
AnchorPoint: "Above" 405 230 basechar 0
LayerCount: 2
Back
SplineSet
131.868164062 827.801757812 m 5
 131.868164062 284.9453125 l 5
 680.219726562 285.494140625 l 1029
300 658 m 0
 300 753 375 830 468 830 c 0
 561 830 636 753 636 658 c 0
 636 563 561 486 468 486 c 0
 375 486 300 563 300 658 c 0
EndSplineSet
Fore
SplineSet
101.868164062 857.801757812 m 1
 161.868164062 857.801757812 l 1
 161.868164062 314.975353599 l 1
 710.189685479 314.975353599 l 1
 710.189685479 255.524181708 l 1
 131.89819012 255.524181708 l 2
 124.761033914 255.517038349 117.971740519 258.295257111 111.530309936 263.858837992 c 0
 105.088879353 269.422418873 101.868164062 276.451243709 101.868164062 284.9453125 c 2
 101.868164062 857.801757812 l 1
330 658 m 0
 330 618.666666667 343.5 585.166666667 370.5 557.5 c 0
 397.5 529.833333333 430 516 468 516 c 0
 506 516 538.5 529.833333333 565.5 557.5 c 0
 592.5 585.166666667 606 618.666666667 606 658 c 0
 606 697.333333333 592.5 730.833333333 565.5 758.5 c 0
 538.5 786.166666667 506 800 468 800 c 0
 430 800 397.5 786.166666667 370.5 758.5 c 0
 343.5 730.833333333 330 697.333333333 330 658 c 0
270 658 m 0
 270 713.333333333 289.333333333 760.833333333 328 800.5 c 0
 366.666666667 840.166666667 413.333333333 860 468 860 c 0
 522.666666667 860 569.333333333 840.166666667 608 800.5 c 0
 646.666666667 760.833333333 666 713.333333333 666 658 c 0
 666 602.666666667 646.666666667 555.166666667 608 515.5 c 0
 569.333333333 475.833333333 522.666666667 456 468 456 c 0
 413.333333333 456 366.666666667 475.833333333 328 515.5 c 0
 289.333333333 555.166666667 270 602.666666667 270 658 c 0
EndSplineSet
Ligature2: "Vdenpabu subtable" denpabu iy
LCarets2: 1 0
EndChar

StartChar: denpabu_uy
Encoding: 175 -1 150
Width: 810
VWidth: 2427
Flags: W
HStem: 255.494 60<101.868 652.418> 455 60<269.39 416.61> 799 60<269.39 416.61>
VStem: 145 60<579.828 734.172> 481 60<579.828 734.172> 652.418 60<315.494 864.396>
AnchorPoint: "Above" 405 230 basechar 0
LayerCount: 2
Back
SplineSet
131.868164062 285.494140625 m 1
 682.41796875 285.494140625 l 1
 682.41796875 834.395507812 l 1025
175 657 m 0
 175 752 250 829 343 829 c 0
 436 829 511 752 511 657 c 0
 511 562 436 485 343 485 c 0
 250 485 175 562 175 657 c 0
EndSplineSet
Fore
SplineSet
101.868164062 255.494140625 m 1
 101.868164062 315.494140625 l 1
 652.41796875 315.494140625 l 1
 652.41796875 864.395507812 l 1
 712.41796875 864.395507812 l 1
 712.41796875 285.494140625 l 2
 712.41796875 278.42485963 709.54770992 271.657539381 703.80719226 265.192179879 c 0
 698.0666746 258.726820376 690.93693343 255.494140625 682.41796875 255.494140625 c 2
 101.868164062 255.494140625 l 1
205 657 m 0
 205 617.666666667 218.5 584.166666667 245.5 556.5 c 0
 272.5 528.833333333 305 515 343 515 c 0
 381 515 413.5 528.833333333 440.5 556.5 c 0
 467.5 584.166666667 481 617.666666667 481 657 c 0
 481 696.333333333 467.5 729.833333333 440.5 757.5 c 0
 413.5 785.166666667 381 799 343 799 c 0
 305 799 272.5 785.166666667 245.5 757.5 c 0
 218.5 729.833333333 205 696.333333333 205 657 c 0
145 657 m 0
 145 712.333333333 164.333333333 759.833333333 203 799.5 c 0
 241.666666667 839.166666667 288.333333333 859 343 859 c 0
 397.666666667 859 444.333333333 839.166666667 483 799.5 c 0
 521.666666667 759.833333333 541 712.333333333 541 657 c 0
 541 601.666666667 521.666666667 554.166666667 483 514.5 c 0
 444.333333333 474.833333333 397.666666667 455 343 455 c 0
 288.333333333 455 241.666666667 474.833333333 203 514.5 c 0
 164.333333333 554.166666667 145 601.666666667 145 657 c 0
EndSplineSet
Ligature2: "Vdenpabu subtable" denpabu uy
LCarets2: 1 0
EndChar

StartChar: colon
Encoding: 164 58 151
Width: 326
VWidth: 230
Flags: W
HStem: 91 82<129.376 186.624> 546 82<129.376 186.624>
VStem: 117 82<103.376 160.624 558.376 615.624>
LayerCount: 2
Fore
SplineSet
117 132 m 0
 117 143.333333333 121 153 129 161 c 0
 137 169 146.666666667 173 158 173 c 0
 169.333333333 173 179 169 187 161 c 0
 195 153 199 143.333333333 199 132 c 0
 199 120.666666667 195 111 187 103 c 0
 179 95 169.333333333 91 158 91 c 0
 146.666666667 91 137 95 129 103 c 0
 121 111 117 120.666666667 117 132 c 0
117 587 m 0
 117 598.333333333 121 608 129 616 c 0
 137 624 146.666666667 628 158 628 c 0
 169.333333333 628 179 624 187 616 c 0
 195 608 199 598.333333333 199 587 c 0
 199 575.666666667 195 566 187 558 c 0
 179 550 169.333333333 546 158 546 c 0
 146.666666667 546 137 550 129 558 c 0
 121 566 117 575.666666667 117 587 c 0
EndSplineSet
EndChar

StartChar: question
Encoding: 165 63 152
Width: 698
VWidth: 230
Flags: W
HStem: 60 82<318.376 375.624> 205.814 21G<318.814 378.999> 358.472 21G<201.613 237.142> 358.472 21G<201.613 237.142> 697 60<223.56 472.802>
VStem: 89 60<471.314 629.613> 306 82<72.3762 129.624> 318.814 60.1853<205.814 325.446> 549 60<503.003 628.647>
DStem2: 222.531 425.091 201.613 368.856 0.938221 -0.346037<-59.4634 29.8406> 410.063 435.157 473.046 385.886 0.875787 0.482698<-67.2072 167.249>
LayerCount: 2
Fore
SplineSet
306 101 m 0xce80
 306 112.333333333 310 122 318 130 c 0
 326 138 335.666666667 142 347 142 c 0
 358.333333333 142 368 138 376 130 c 0
 384 122 388 112.333333333 388 101 c 0
 388 89.6666666667 384 80 376 72 c 0
 368 64 358.333333333 60 347 60 c 0
 335.666666667 60 326 64 318 72 c 0
 310 80 306 89.6666666667 306 101 c 0xce80
250.527731556 414.765525637 m 1
 229.765525637 358.472268444 l 1
 201.612823784 368.855604795 l 2
 197.957982639 370.203591538 193.245961014 372.348368828 187.476758908 375.289936664 c 0
 181.707556802 378.2315045 172.56717533 384.777733148 160.055614491 394.928622608 c 0
 147.544053652 405.079512069 136.434244118 416.675043674 126.72618589 429.715217425 c 0
 117.018127662 442.755391176 108.303415456 460.769593686 100.582049274 483.757824957 c 0
 92.8606830913 506.746056227 89 531.826781242 89 559 c 0
 89 614.333333333 110.833333333 661.166666667 154.5 699.5 c 0
 198.166666667 737.833333333 263 757 349 757 c 0
 434.333333333 757 499 737.666666667 543 699 c 0
 587 660.333333333 609 613.666666667 609 559 c 0
 609 496.953423581 587.481376881 451.625424371 544.444130642 423.016002369 c 0
 539.459931022 419.702707893 515.660576859 407.325884699 473.046068152 385.885532787 c 0
 432.354652152 365.412733609 405.55529337 340.284703237 392.647991806 310.501441671 c 0
 383.848288861 289.384963325 379.298765165 264.489005749 378.999420719 235.813568941 c 2
 378.999420719 205.814148222 l 1
 318.814148222 205.814148222 l 1
 318.814148222 236.186431059 l 2xed80
 319.042634814 272.953187765 323.4509488 304.968838579 332.039090181 332.2333835 c 0
 340.627231562 359.497928421 351.695202679 380.764661923 365.243003531 396.033584007 c 0
 378.790804384 411.302506091 393.730868362 424.343639728 410.063195464 435.156984918 c 0
 426.395522566 445.970330108 442.704430139 454.968397216 458.989918183 462.15118624 c 0
 475.275406227 469.333975265 490.146638792 476.701678897 503.603615878 484.254297135 c 0
 517.060592964 491.806915373 527.990901256 501.726788864 536.394540754 514.013917609 c 0
 544.798180251 526.301046353 549 541.29640715 549 559 c 0
 549 596.333333333 533.666666667 628.666666667 503 656 c 0
 472.333333333 683.333333333 421 697 349 697 c 0
 276.333333333 697 224.833333333 683.666666667 194.5 657 c 0
 164.166666667 630.333333333 149 597.666666667 149 559 c 0
 149 539.365076985 151.558113741 521.344010179 156.674341222 504.936799581 c 0
 161.790568704 488.529588984 167.459362255 475.807085726 173.680721874 466.769289807 c 0
 179.902081494 457.731493888 187.224161516 449.669575295 195.646961942 442.583534026 c 0
 204.069762368 435.497492758 209.983327074 431.079284833 213.387656058 429.328910251 c 0
 216.791985043 427.57853567 219.839641093 426.16605953 222.530624209 425.091481832 c 2
 250.527731556 414.765525637 l 1
EndSplineSet
EndChar

StartChar: exclam
Encoding: 166 33 153
Width: 350
VWidth: 230
Flags: W
HStem: 91 82<129.376 186.624> 255 21G<127 187> 680 20G<127 187> 680 20G<127 187>
VStem: 117 82<103.376 160.624> 127 60<255 700>
CounterMasks: 1 f0
LayerCount: 2
Fore
SplineSet
117 132 m 0xc8
 117 143.333333333 121 153 129 161 c 0
 137 169 146.666666667 173 158 173 c 0
 169.333333333 173 179 169 187 161 c 0
 195 153 199 143.333333333 199 132 c 0
 199 120.666666667 195 111 187 103 c 0
 179 95 169.333333333 91 158 91 c 0
 146.666666667 91 137 95 129 103 c 0
 121 111 117 120.666666667 117 132 c 0xc8
127 700 m 1xe4
 187 700 l 1
 187 255 l 1
 127 255 l 1
 127 700 l 1xe4
EndSplineSet
EndChar

StartChar: less
Encoding: 167 60 154
Width: 807
VWidth: 230
Flags: W
HStem: 20.8892 21G<612.792 658.356> 678.105 20G<611.771 657.364> 678.105 20G<611.771 657.364>
DStem2: 192.8 359.982 108.134 340.467 0.859902 -0.51046<0 563.216> 118.702 385.806 192.8 359.982 0.860208 0.509944<50.5715 612.417>
CounterMasks: 1 e0
LayerCount: 2
Fore
SplineSet
645.50792825 698.104542862 m 1xc0
 676.104542862 646.49207175 l 1
 192.800282188 359.982360332 l 1
 677.110840071 72.4832642179 l 1
 646.483264218 20.8891599293 l 1
 108.133753431 340.467156373 l 1
 103.224714647 347.549550914 101.890504293 355.769123147 104.13112237 365.125873074 c 0
 106.371740446 374.482623001 111.228597221 381.376077162 118.701692694 385.806235556 c 2
 645.50792825 698.104542862 l 1xc0
EndSplineSet
EndChar

StartChar: braceleft
Encoding: 169 123 156
Width: 535
VWidth: 230
Flags: W
HStem: -142.878 59.8778<321.213 434.878> 328.948 60.152<79.6388 139.255> 802.211 59.7884<322.78 434.789>
VStem: 194 60<-20.3228 246.197 475.792 736.777>
LayerCount: 2
Fore
SplineSet
104.552431088 328.948007663 m 0
 93.1026080256 329.815003393 84.7140927272 334.990625308 79.3868851927 344.474873406 c 0
 74.0596776583 353.959121504 73.7112383175 363.499309875 78.3415671703 373.09543852 c 0
 82.9718960231 382.691567165 91.8584683553 388.02643111 105.001284167 389.100030353 c 0
 107.412404755 389.141844609 110.618722369 389.711306126 114.620237008 390.808414902 c 0
 118.621751647 391.905523679 125.736921226 397.30302985 135.965745746 407.000933416 c 0
 146.194570265 416.698836982 155.21783449 429.920871564 163.035538421 446.667037162 c 0
 170.853242352 463.41320276 177.968411931 490.080937795 184.381047159 526.670242268 c 0
 190.793682386 563.25954674 194 606.369465984 194 656 c 0
 194 683.818855286 197.874972935 709.032993309 205.624918805 731.642414068 c 0
 213.374864676 754.251834827 223.446380234 772.506579603 235.83946548 786.406648394 c 0
 248.232550727 800.306717186 261.92298374 812.427851876 276.91076452 822.770052464 c 0
 291.8985453 833.112253052 306.88632608 840.672568111 321.87410686 845.450997642 c 0
 336.86188764 850.229427172 350.552320653 854.004905276 362.9454059 856.777431953 c 0
 375.338491146 859.549958631 385.410006704 861.113390235 393.159952575 861.467726765 c 2
 404.78487138 861.999231561 l 1
 434.789172689 861.999231561 l 1
 434.789172689 832.21009166 l 1
 434.999264349 802.210827311 l 1
 405.250140234 802.210827311 l 2
 399.719558269 802.121968285 393.139440769 801.662751433 385.509787735 800.833176755 c 0
 377.880134701 800.003602077 365.608129216 796.816417827 348.69377128 791.271624006 c 0
 331.779413344 785.726830184 316.912046636 778.293692318 304.091671154 768.972210406 c 0
 291.271295673 759.650728495 279.717589943 745.126543456 269.430553966 725.39965529 c 0
 259.143517989 705.672767124 254 682.539548694 254 656 c 0
 254 508.501365762 226.234911765 409.487462204 170.704735294 358.958289328 c 1
 226.234911765 307.929570566 254 208.61014079 254 61 c 0
 254 -10.6869147848 287.937711766 -56.1928690177 355.813135299 -75.5178626987 c 0
 373.055834841 -80.3894384695 389.424187202 -82.8835124965 404.918192382 -83.0000847795 c 2
 434.877873689 -83.0000847795 l 1
 434.877873689 -142.877873689 l 1
 406.121870484 -142.877873689 l 2
 403.166316187 -142.892963237 399.143616374 -142.771221776 394.053771046 -142.512649306 c 0
 388.963925718 -142.254076836 379.074823174 -140.826986933 364.386463414 -138.231379597 c 0
 349.698103654 -135.635772262 335.674536639 -132.041370058 322.315762369 -127.448172986 c 0
 308.9569881 -122.854975914 294.120436682 -115.475261943 277.806108115 -105.309031072 c 0
 261.491779548 -95.1428002008 247.468212533 -83.1662129765 235.73540707 -69.3792693989 c 0
 224.002601607 -55.5923258213 214.113499063 -37.4008658775 206.068099438 -14.8048895675 c 0
 198.022699813 7.79108674255 194 33.059383265 194 61 c 0
 194 201.988150165 170.994445605 288.474110383 124.983336816 320.457880655 c 0
 117.246589469 325.809462162 110.436287559 328.639504498 104.552431088 328.948007663 c 0
EndSplineSet
EndChar

StartChar: semicolon
Encoding: 171 59 158
Width: 378
VWidth: 230
Flags: W
HStem: 19.6104 21G<154.834 194.973> 259.207 20G<186.76 227.605> 552 82<166.376 223.624>
VStem: 154 82<564.376 621.624>
DStem2: 132.61 63.7662 173.234 19.6104 0.735931 0.677057<5.59254e-11 109.501> 211.314 279.207 164.793 241.314 0.63155 -0.775335<0 82.917>
LayerCount: 2
Fore
SplineSet
207 237 m 24
 209 235 211.333333333 231.833333333 214 227.5 c 0
 216.666666667 223.166666667 220 214.666666667 224 202 c 0
 228 189.333333333 230 176.5 230 163.5 c 0
 230 150.5 225.5 134.666666667 216.5 116 c 0
 207.5 97.3333333333 193.666666667 79.3333333333 175 62 c 1024
164.793444505 241.313545322 m 1
 211.313545322 279.206555495 l 1
 230.2640951 255.941549138 l 2
 246.885884886 235.535481287 256.354742429 209.435076181 258.670667729 177.640333819 c 0
 262.28544943 128.013926242 241.165792162 82.1078381852 195.311695925 39.9220696471 c 2
 173.233765572 19.6103737225 l 1
 132.610373723 63.7662344282 l 1
 154.688304075 84.0779303529 l 2
 169.522279557 97.725187796 180.617218063 111.683582917 187.973119595 125.953115716 c 0
 195.329021127 140.222648515 199.420862727 152.143215148 200.248644397 161.714815613 c 0
 201.076426066 171.286416079 199.962863791 181.00112142 196.907957573 190.858931636 c 0
 193.853051354 200.716741852 191.408072609 207.046660788 189.573021337 209.848688444 c 0
 187.737970064 212.6507161 185.759267879 215.427815828 183.636914781 218.179987629 c 2
 164.793444505 241.313545322 l 1
154 593 m 0
 154 604.333333333 158 614 166 622 c 0
 174 630 183.666666667 634 195 634 c 0
 206.333333333 634 216 630 224 622 c 0
 232 614 236 604.333333333 236 593 c 0
 236 581.666666667 232 572 224 564 c 0
 216 556 206.333333333 552 195 552 c 0
 183.666666667 552 174 556 166 564 c 0
 158 572 154 581.666666667 154 593 c 0
EndSplineSet
EndChar

StartChar: quotedbl
Encoding: 172 34 159
Width: 407
VWidth: 230
Flags: W
HStem: 627 235<102 162 256 316>
VStem: 102 60<627 862> 256 60<627 862>
LayerCount: 2
Fore
SplineSet
102 862 m 1
 162 862 l 1
 162 627 l 1
 102 627 l 1
 102 862 l 1
256 862 m 1
 316 862 l 1
 316 627 l 1
 256 627 l 1
 256 862 l 1
EndSplineSet
EndChar

